<svg width="184" height="33" viewBox="0 0 184 33" fill="none" xmlns="http://www.w3.org/2000/svg">
<path d="M6.93 4.518C7.964 4.518 8.387 4.894 8.622 5.223C8.951 5.693 9.092 6.304 9.092 6.68V8.889H13.51V6.68C13.51 5.599 13.181 4.048 12.194 2.685C11.113 1.181 9.374 0.0999978 6.93 0.0999978C4.439 0.0999978 2.7 1.181 1.619 2.685C0.632 4.048 0.35 5.599 0.35 6.68V9.782L9.092 18.571V26.42C9.092 26.843 8.951 27.454 8.622 27.924C8.387 28.253 7.964 28.629 6.93 28.629C5.849 28.629 5.426 28.253 5.191 27.924C4.862 27.454 4.721 26.843 4.721 26.42V22.049H0.35V26.42C0.35 27.548 0.632 29.099 1.619 30.462C2.7 31.966 4.439 33 6.93 33C9.374 33 11.113 31.966 12.194 30.462C13.181 29.099 13.51 27.548 13.51 26.42V16.785L4.721 7.996V6.68C4.721 6.304 4.862 5.693 5.191 5.223C5.426 4.894 5.849 4.518 6.93 4.518ZM31.5055 5.176C30.1425 7.855 30.1425 11.004 30.1895 13.119C30.1895 13.166 30.1895 32.953 30.1895 33H43.3495V22.049H38.9315V28.629H34.5605V15.469H38.9315V11.098H34.6075C34.6545 9.594 34.8425 8.231 35.4065 7.15C35.7825 6.398 36.2995 5.787 37.1455 5.317C37.5685 5.082 38.1795 4.847 38.9315 4.706V8.889H43.3495V0.0999978H41.1405C38.6495 0.0999978 36.6285 0.569997 34.9835 1.51C33.3385 2.403 32.2105 3.719 31.5055 5.176ZM70.98 0.0999978C66.515 0.0999978 63.695 2.497 62.05 5.317C60.499 8.043 60.029 11.192 60.029 13.26V33H64.4V17.678H68.771V33H73.189V0.0999978H70.98ZM68.771 13.26H64.4C64.4 11.709 64.776 9.406 65.857 7.526C66.515 6.351 67.455 5.364 68.771 4.894V13.26ZM96.4485 4.518C97.4825 4.518 97.9055 4.894 98.1405 5.223C98.4695 5.693 98.6105 6.304 98.6105 6.68V8.889H103.028V6.68C103.028 5.599 102.699 4.048 101.712 2.685C100.631 1.181 98.8925 0.0999978 96.4485 0.0999978C93.9575 0.0999978 92.2185 1.181 91.1375 2.685C90.1505 4.048 89.8685 5.599 89.8685 6.68V9.782L98.6105 18.571V26.42C98.6105 26.843 98.4695 27.454 98.1405 27.924C97.9055 28.253 97.4825 28.629 96.4485 28.629C95.3675 28.629 94.9445 28.253 94.7095 27.924C94.3805 27.454 94.2395 26.843 94.2395 26.42V22.049H89.8685V26.42C89.8685 27.548 90.1505 29.099 91.1375 30.462C92.2185 31.966 93.9575 33 96.4485 33C98.8925 33 100.631 31.966 101.712 30.462C102.699 29.099 103.028 27.548 103.028 26.42V16.785L94.2395 7.996V6.68C94.2395 6.304 94.3805 5.693 94.7095 5.223C94.9445 4.894 95.3675 4.518 96.4485 4.518ZM124.079 33V0.0999978H119.708V33H124.079ZM140.781 33H147.361C149.805 33 151.544 31.966 152.625 30.462C153.612 29.099 153.941 27.548 153.941 26.42V6.68C153.941 5.599 153.612 4.048 152.625 2.685C151.544 1.181 149.805 0.0999978 147.361 0.0999978H140.781V33ZM147.361 4.518C148.395 4.518 148.818 4.894 149.053 5.223C149.382 5.693 149.523 6.304 149.523 6.68V26.42C149.523 26.843 149.382 27.454 149.053 27.924C148.818 28.253 148.395 28.629 147.361 28.629H145.152V4.518H147.361ZM171.936 5.176C170.573 7.855 170.573 11.004 170.62 13.119C170.62 13.166 170.62 32.953 170.62 33H183.78V22.049H179.362V28.629H174.991V15.469H179.362V11.098H175.038C175.085 9.594 175.273 8.231 175.837 7.15C176.213 6.398 176.73 5.787 177.576 5.317C177.999 5.082 178.61 4.847 179.362 4.706V8.889H183.78V0.0999978H181.571C179.08 0.0999978 177.059 0.569997 175.414 1.51C173.769 2.403 172.641 3.719 171.936 5.176Z" fill="white"/>
</svg>
