<svg width="56" height="56" viewBox="0 0 56 56" fill="none" xmlns="http://www.w3.org/2000/svg">
<path d="M37.1752 49.4082C36.0706 49.4082 35.1752 48.5128 35.1752 47.4082V44.1165C35.1752 43.012 34.2797 42.1166 33.1752 42.1166H28.0168C26.9123 42.1166 26.0168 41.2211 26.0168 40.1166V19.8499C26.0168 18.7453 25.1214 17.8499 24.0168 17.8499H22.8835C21.7789 17.8499 20.8835 18.7453 20.8835 19.8499V23.4332C20.8835 24.5378 19.9881 25.4332 18.8835 25.4332H6.0835C4.97893 25.4332 4.0835 24.5378 4.0835 23.4332V8.59155C4.0835 7.48698 4.97893 6.59155 6.0835 6.59155H18.8835C19.9881 6.59155 20.8835 7.48698 20.8835 8.59155V11.8832C20.8835 12.9878 21.7789 13.8832 22.8835 13.8832H33.1752C34.2797 13.8832 35.1752 12.9878 35.1752 11.8832V8.59155C35.1752 7.48698 36.0706 6.59155 37.1752 6.59155H49.9168C51.0214 6.59155 51.9168 7.48698 51.9168 8.59155V23.4332C51.9168 24.5378 51.0214 25.4332 49.9168 25.4332H37.1752C36.0706 25.4332 35.1752 24.5378 35.1752 23.4332V19.8499C35.1752 18.7453 34.2797 17.8499 33.1752 17.8499H31.9835C30.8789 17.8499 29.9835 18.7453 29.9835 19.8499V36.1499C29.9835 37.2545 30.8789 38.1499 31.9835 38.1499H33.1752C34.2797 38.1499 35.1752 37.2545 35.1752 36.1499V32.5666C35.1752 31.462 36.0706 30.5666 37.1752 30.5666H49.9168C51.0214 30.5666 51.9168 31.462 51.9168 32.5666V47.4082C51.9168 48.5128 51.0214 49.4082 49.9168 49.4082H37.1752ZM8.1085 10.5582V21.4666V10.5582ZM39.1418 34.5332V45.4416V34.5332ZM39.1418 10.5582V21.4666V10.5582ZM39.1418 19.4666C39.1418 20.5711 40.0373 21.4666 41.1418 21.4666H45.8918C46.9964 21.4666 47.8918 20.5711 47.8918 19.4666V12.5582C47.8918 11.4537 46.9964 10.5582 45.8918 10.5582H41.1418C40.0373 10.5582 39.1418 11.4536 39.1418 12.5582V19.4666ZM39.1418 43.4416C39.1418 44.5461 40.0373 45.4416 41.1418 45.4416H45.8918C46.9964 45.4416 47.8918 44.5461 47.8918 43.4416V36.5332C47.8918 35.4287 46.9964 34.5332 45.8918 34.5332H41.1418C40.0373 34.5332 39.1418 35.4286 39.1418 36.5332V43.4416ZM8.1085 19.4666C8.1085 20.5711 9.00393 21.4666 10.1085 21.4666H14.9168C16.0214 21.4666 16.9168 20.5711 16.9168 19.4666V12.5582C16.9168 11.4537 16.0214 10.5582 14.9168 10.5582H10.1085C9.00393 10.5582 8.1085 11.4536 8.1085 12.5582V19.4666Z" fill="#837EF1"/>
</svg>
