<svg width="22" height="22" viewBox="0 0 22 22" fill="none" xmlns="http://www.w3.org/2000/svg">
<path d="M20.25 21H8C7.80109 21 7.61032 20.921 7.46967 20.7803C7.32902 20.6397 7.25 20.4489 7.25 20.25V8C7.25 7.80109 7.32902 7.61032 7.46967 7.46967C7.61032 7.32902 7.80109 7.25 8 7.25H20.25C20.4489 7.25 20.6397 7.32902 20.7803 7.46967C20.921 7.61032 21 7.80109 21 8V20.25C21 20.4489 20.921 20.6397 20.7803 20.7803C20.6397 20.921 20.4489 21 20.25 21Z" stroke="#726BEE" stroke-width="1.5" stroke-linecap="round" stroke-linejoin="round"/>
<path d="M14.75 7.25V1.75C14.75 1.55109 14.671 1.36032 14.5303 1.21967C14.3897 1.07902 14.1989 1 14 1H1.75C1.55109 1 1.36032 1.07902 1.21967 1.21967C1.07902 1.36032 1 1.55109 1 1.75V14C1 14.1989 1.07902 14.3897 1.21967 14.5303C1.36032 14.671 1.55109 14.75 1.75 14.75H7.25" stroke="#726BEE" stroke-width="1.5" stroke-linecap="round" stroke-linejoin="round"/>
</svg>
