<svg width="20" height="18" viewBox="0 0 20 18" fill="none" xmlns="http://www.w3.org/2000/svg">
<path d="M17.97 18L14.614 14.7139C13.1661 15.3594 11.5908 15.6847 10 15.6666C8.3599 15.6866 6.73671 15.34 5.254 14.6532C4.10468 14.1042 3.07264 13.3458 2.213 12.4188C1.30049 11.461 0.5833 10.3414 0.0999999 9.11994L0 8.81248L0.105 8.50307C0.82781 6.69779 2.04426 5.12218 3.621 3.94898L1 1.38258L2.413 0L19.382 16.6155L17.972 18H17.97ZM5.036 5.33548C3.75792 6.21273 2.74865 7.41492 2.117 8.81248C3.47142 11.8723 6.59587 13.8128 10 13.7083C11.0498 13.7167 12.0936 13.5513 13.087 13.2187L11.287 11.4562C10.8863 11.6485 10.4462 11.749 10 11.75C8.3475 11.7398 7.01037 10.4307 7 8.81248C7.00048 8.3746 7.10309 7.94259 7.3 7.54936L5.036 5.33548ZM17.852 12.3473L16.46 10.9853C17.0456 10.3369 17.5256 9.60414 17.883 8.81248C16.5304 5.75121 13.4047 3.81001 10 3.91666C9.753 3.91666 9.505 3.92548 9.265 3.94212L7.5 2.21194C8.3216 2.03984 9.1598 1.95481 10 1.95833C11.6401 1.93841 13.2633 2.28501 14.746 2.97177C15.8953 3.52083 16.9274 4.27915 17.787 5.20623C18.6991 6.16284 19.4163 7.28117 19.9 8.50111L20 8.81248L19.895 9.1219C19.4268 10.3146 18.7342 11.4107 17.853 12.3531L17.852 12.3473Z" fill="#4795DD"/>
</svg>
