<svg width="70" height="70" viewBox="0 0 70 70" fill="none" xmlns="http://www.w3.org/2000/svg">
<mask id="path-1-outside-1_859_607" maskUnits="userSpaceOnUse" x="7.00435" y="6.57916" width="56.3383" height="56.3383" fill="black">
<rect fill="white" x="7.00435" y="6.57916" width="56.3383" height="56.3383"/>
<path fill-rule="evenodd" clip-rule="evenodd" d="M54.6303 21.3743C54.4964 21.3519 54.0885 21.2882 53.7238 21.2327C53.3591 21.1771 52.7063 21.101 52.2732 21.0634C51.8402 21.0259 51.0943 20.9863 50.6157 20.9757C50.1372 20.965 49.3695 20.9742 48.9096 20.9962C48.4498 21.0181 47.5511 21.0948 46.9125 21.1665C46.274 21.2383 45.0936 21.4343 44.2894 21.6022C43.4853 21.7701 42.317 22.0644 41.6934 22.2564C41.0697 22.4485 40.0767 22.7991 39.4868 23.0356C38.8968 23.272 38.1326 23.6012 37.7884 23.7671C37.4443 23.9329 36.594 24.3936 35.8989 24.7906L34.635 25.5126L33.7932 25.3425C33.3302 25.249 32.6162 25.136 32.2065 25.0915C31.7969 25.047 31.1351 25.0001 30.7358 24.9874C30.3365 24.9747 29.639 24.9832 29.1856 25.0062C28.7323 25.0293 28.0351 25.0917 27.6364 25.1449C27.2376 25.1981 26.6132 25.3037 26.2489 25.3797C25.8846 25.4556 25.1992 25.6311 24.7258 25.7697C24.2523 25.9083 23.4477 26.1895 22.9378 26.3945C22.4278 26.5997 21.6475 26.9693 21.2037 27.216C20.4277 27.6475 20.394 27.6758 20.3185 27.9595C20.2538 28.2028 20.2686 28.3024 20.4029 28.5278L20.5658 28.801L23.2716 29.9547C24.7598 30.5892 25.9867 31.121 25.9982 31.1366C26.0096 31.1522 25.7928 31.3203 25.5165 31.5103C25.2402 31.7004 24.9758 31.9247 24.929 32.0087C24.8822 32.0928 24.8418 32.251 24.8391 32.3601C24.8358 32.4948 25.9619 34.5117 28.342 38.6343C30.7223 42.7569 31.9059 44.7406 32.0242 44.805C32.12 44.8573 32.2772 44.9013 32.3735 44.9028C32.4697 44.9043 32.7961 44.7875 33.0988 44.6433C33.4015 44.499 33.6555 44.3953 33.6632 44.413C33.6709 44.4306 33.5166 45.7587 33.3203 47.3643C32.9761 50.1807 32.9682 50.2918 33.0961 50.5153C33.169 50.6426 33.3034 50.7884 33.3948 50.8393C33.4862 50.8901 33.6502 50.9342 33.7593 50.9372C33.8762 50.9405 34.2595 50.7624 34.6928 50.5034C35.0972 50.2618 35.749 49.8174 36.1412 49.5159C36.5335 49.2144 37.1341 48.7102 37.476 48.3956C37.8178 48.081 38.3493 47.5445 38.6569 47.2034C38.9646 46.8622 39.4191 46.3193 39.667 45.9968C39.9149 45.6744 40.3194 45.0988 40.5661 44.7178C40.8127 44.3367 41.1687 43.7368 41.3572 43.3846C41.5457 43.0325 41.8307 42.4491 41.9905 42.0883C42.1503 41.7275 42.4116 41.0528 42.5711 40.5891L42.8612 39.7459L44.3175 38.8849C45.1184 38.4114 46.0936 37.7889 46.4844 37.5017C46.8753 37.2145 47.5219 36.711 47.9213 36.3829C48.3206 36.0549 48.9531 35.4989 49.3269 35.1475C49.7007 34.7961 50.3113 34.1816 50.6838 33.782C51.0563 33.3824 51.583 32.7879 51.8542 32.461C52.1254 32.1341 52.5506 31.5942 52.7991 31.2612C53.0475 30.9282 53.4879 30.2943 53.7778 29.8525C54.0675 29.4107 54.5318 28.6361 54.8094 28.1311C55.0869 27.6261 55.4773 26.848 55.6768 26.402C55.8763 25.956 56.1607 25.2639 56.3087 24.8641C56.4568 24.4642 56.6789 23.7603 56.8023 23.3L57.0266 22.4629L56.8579 22.1707L56.6892 21.8784L55.7814 21.6468C55.2821 21.5194 54.7641 21.3968 54.6303 21.3743ZM46.0406 25.8599C46.3379 25.9894 46.6874 26.217 46.9992 26.4841C47.3406 26.7765 47.5759 27.0536 47.7723 27.3947C47.9275 27.6644 48.1021 28.0934 48.1601 28.3482C48.2182 28.603 48.2704 29.0089 48.2761 29.2501C48.2823 29.508 48.2267 29.9124 48.1413 30.2311C48.0559 30.5498 47.9018 30.9279 47.7676 31.148C47.642 31.3541 47.3975 31.675 47.2242 31.8611C47.051 32.0472 46.7046 32.3198 46.4543 32.4669C46.2041 32.6141 45.8386 32.7787 45.6423 32.8327C45.4459 32.8867 45.1196 32.9477 44.9173 32.9683C44.7149 32.9888 44.3354 32.9835 44.0739 32.9563C43.7302 32.9207 43.4614 32.8478 43.1041 32.6933C42.7756 32.5513 42.4453 32.3386 42.1192 32.0589C41.7752 31.7639 41.5418 31.4879 41.3384 31.1356C41.1393 30.7908 41.0085 30.4318 40.9221 29.9928C40.834 29.5456 40.8159 29.1948 40.8619 28.8289C40.9067 28.4721 40.9935 28.148 41.1341 27.8121C41.2802 27.4627 41.4654 27.1759 41.7698 26.8278C42.0631 26.4924 42.3576 26.2452 42.6985 26.0484C43.0379 25.8524 43.4027 25.7194 43.8381 25.6328C44.2218 25.5564 44.6479 25.5257 44.9009 25.5562C45.1331 25.5841 45.3793 25.618 45.4479 25.6316C45.5166 25.6451 45.7833 25.7479 46.0406 25.8599ZM22.7814 37.6133C22.6648 37.6012 22.3767 37.589 22.1413 37.586C21.9057 37.583 21.4834 37.6283 21.2028 37.6866C20.9221 37.7448 20.4985 37.8762 20.2613 37.9785C20.0241 38.0807 19.6488 38.3093 19.4272 38.4865C19.2056 38.6636 18.7632 39.0977 18.444 39.451C18.1249 39.8044 17.6133 40.4117 17.3071 40.8007C17.001 41.1896 16.3086 42.1413 15.7685 42.9156C15.2283 43.6899 14.4702 44.8204 14.0837 45.4279C13.6972 46.0354 13.356 46.6256 13.3255 46.7395C13.2866 46.8846 13.3205 47.0339 13.4387 47.2387C13.5584 47.446 13.6688 47.5474 13.8186 47.5876C13.9348 47.6187 14.7024 47.613 15.5244 47.575C16.3464 47.537 17.6568 47.4498 18.4364 47.3813C19.2159 47.3127 20.2734 47.1993 20.7862 47.1293C21.2991 47.0593 22.1258 46.9156 22.6233 46.8101C23.1208 46.7046 23.745 46.5333 24.0104 46.4295C24.2759 46.3257 24.6625 46.1146 24.8697 45.9603C25.0768 45.8061 25.4024 45.5049 25.5932 45.291C25.7839 45.0771 26.0458 44.7207 26.1751 44.499C26.3265 44.2393 26.4788 43.8435 26.6034 43.3851C26.7549 42.8285 26.7925 42.5546 26.7766 42.1238C26.7653 41.8211 26.7095 41.3648 26.6523 41.1097C26.5882 40.8238 26.3863 40.3654 26.1257 39.9139C25.8642 39.4611 25.5696 39.0593 25.3532 38.8604C25.1609 38.6836 24.8093 38.4176 24.5721 38.2693C24.3321 38.1192 23.8863 37.9187 23.5671 37.8174C23.2516 37.7172 22.8981 37.6253 22.7814 37.6133Z"/>
<path d="M46.0406 25.8599C46.3379 25.9894 46.6874 26.217 46.9992 26.4841C47.3406 26.7765 47.5759 27.0536 47.7723 27.3947C47.9275 27.6644 48.1021 28.0934 48.1601 28.3482C48.2182 28.603 48.2704 29.0089 48.2761 29.2501C48.2823 29.508 48.2267 29.9124 48.1413 30.2311C48.0559 30.5498 47.9018 30.9279 47.7676 31.148C47.642 31.3541 47.3975 31.675 47.2242 31.8611C47.051 32.0472 46.7046 32.3198 46.4543 32.4669C46.2041 32.6141 45.8386 32.7787 45.6423 32.8327C45.4459 32.8867 45.1196 32.9477 44.9173 32.9683C44.7149 32.9888 44.3354 32.9835 44.0739 32.9563C43.7302 32.9207 43.4614 32.8478 43.1041 32.6933C42.7756 32.5513 42.4453 32.3386 42.1192 32.0589C41.7752 31.7639 41.5418 31.4879 41.3384 31.1356C41.1393 30.7908 41.0085 30.4318 40.9221 29.9928C40.834 29.5456 40.8159 29.1948 40.8619 28.8289C40.9067 28.4721 40.9935 28.148 41.1341 27.8121C41.2802 27.4627 41.4654 27.1759 41.7698 26.8278C42.0631 26.4924 42.3576 26.2452 42.6985 26.0484C43.0379 25.8524 43.4027 25.7194 43.8381 25.6328C44.2218 25.5564 44.6479 25.5257 44.9009 25.5562C45.1331 25.5841 45.3793 25.618 45.4479 25.6316C45.5166 25.6451 45.7833 25.7479 46.0406 25.8599Z"/>
</mask>
<path fill-rule="evenodd" clip-rule="evenodd" d="M54.6303 21.3743C54.4964 21.3519 54.0885 21.2882 53.7238 21.2327C53.3591 21.1771 52.7063 21.101 52.2732 21.0634C51.8402 21.0259 51.0943 20.9863 50.6157 20.9757C50.1372 20.965 49.3695 20.9742 48.9096 20.9962C48.4498 21.0181 47.5511 21.0948 46.9125 21.1665C46.274 21.2383 45.0936 21.4343 44.2894 21.6022C43.4853 21.7701 42.317 22.0644 41.6934 22.2564C41.0697 22.4485 40.0767 22.7991 39.4868 23.0356C38.8968 23.272 38.1326 23.6012 37.7884 23.7671C37.4443 23.9329 36.594 24.3936 35.8989 24.7906L34.635 25.5126L33.7932 25.3425C33.3302 25.249 32.6162 25.136 32.2065 25.0915C31.7969 25.047 31.1351 25.0001 30.7358 24.9874C30.3365 24.9747 29.639 24.9832 29.1856 25.0062C28.7323 25.0293 28.0351 25.0917 27.6364 25.1449C27.2376 25.1981 26.6132 25.3037 26.2489 25.3797C25.8846 25.4556 25.1992 25.6311 24.7258 25.7697C24.2523 25.9083 23.4477 26.1895 22.9378 26.3945C22.4278 26.5997 21.6475 26.9693 21.2037 27.216C20.4277 27.6475 20.394 27.6758 20.3185 27.9595C20.2538 28.2028 20.2686 28.3024 20.4029 28.5278L20.5658 28.801L23.2716 29.9547C24.7598 30.5892 25.9867 31.121 25.9982 31.1366C26.0096 31.1522 25.7928 31.3203 25.5165 31.5103C25.2402 31.7004 24.9758 31.9247 24.929 32.0087C24.8822 32.0928 24.8418 32.251 24.8391 32.3601C24.8358 32.4948 25.9619 34.5117 28.342 38.6343C30.7223 42.7569 31.9059 44.7406 32.0242 44.805C32.12 44.8573 32.2772 44.9013 32.3735 44.9028C32.4697 44.9043 32.7961 44.7875 33.0988 44.6433C33.4015 44.499 33.6555 44.3953 33.6632 44.413C33.6709 44.4306 33.5166 45.7587 33.3203 47.3643C32.9761 50.1807 32.9682 50.2918 33.0961 50.5153C33.169 50.6426 33.3034 50.7884 33.3948 50.8393C33.4862 50.8901 33.6502 50.9342 33.7593 50.9372C33.8762 50.9405 34.2595 50.7624 34.6928 50.5034C35.0972 50.2618 35.749 49.8174 36.1412 49.5159C36.5335 49.2144 37.1341 48.7102 37.476 48.3956C37.8178 48.081 38.3493 47.5445 38.6569 47.2034C38.9646 46.8622 39.4191 46.3193 39.667 45.9968C39.9149 45.6744 40.3194 45.0988 40.5661 44.7178C40.8127 44.3367 41.1687 43.7368 41.3572 43.3846C41.5457 43.0325 41.8307 42.4491 41.9905 42.0883C42.1503 41.7275 42.4116 41.0528 42.5711 40.5891L42.8612 39.7459L44.3175 38.8849C45.1184 38.4114 46.0936 37.7889 46.4844 37.5017C46.8753 37.2145 47.5219 36.711 47.9213 36.3829C48.3206 36.0549 48.9531 35.4989 49.3269 35.1475C49.7007 34.7961 50.3113 34.1816 50.6838 33.782C51.0563 33.3824 51.583 32.7879 51.8542 32.461C52.1254 32.1341 52.5506 31.5942 52.7991 31.2612C53.0475 30.9282 53.4879 30.2943 53.7778 29.8525C54.0675 29.4107 54.5318 28.6361 54.8094 28.1311C55.0869 27.6261 55.4773 26.848 55.6768 26.402C55.8763 25.956 56.1607 25.2639 56.3087 24.8641C56.4568 24.4642 56.6789 23.7603 56.8023 23.3L57.0266 22.4629L56.8579 22.1707L56.6892 21.8784L55.7814 21.6468C55.2821 21.5194 54.7641 21.3968 54.6303 21.3743ZM46.0406 25.8599C46.3379 25.9894 46.6874 26.217 46.9992 26.4841C47.3406 26.7765 47.5759 27.0536 47.7723 27.3947C47.9275 27.6644 48.1021 28.0934 48.1601 28.3482C48.2182 28.603 48.2704 29.0089 48.2761 29.2501C48.2823 29.508 48.2267 29.9124 48.1413 30.2311C48.0559 30.5498 47.9018 30.9279 47.7676 31.148C47.642 31.3541 47.3975 31.675 47.2242 31.8611C47.051 32.0472 46.7046 32.3198 46.4543 32.4669C46.2041 32.6141 45.8386 32.7787 45.6423 32.8327C45.4459 32.8867 45.1196 32.9477 44.9173 32.9683C44.7149 32.9888 44.3354 32.9835 44.0739 32.9563C43.7302 32.9207 43.4614 32.8478 43.1041 32.6933C42.7756 32.5513 42.4453 32.3386 42.1192 32.0589C41.7752 31.7639 41.5418 31.4879 41.3384 31.1356C41.1393 30.7908 41.0085 30.4318 40.9221 29.9928C40.834 29.5456 40.8159 29.1948 40.8619 28.8289C40.9067 28.4721 40.9935 28.148 41.1341 27.8121C41.2802 27.4627 41.4654 27.1759 41.7698 26.8278C42.0631 26.4924 42.3576 26.2452 42.6985 26.0484C43.0379 25.8524 43.4027 25.7194 43.8381 25.6328C44.2218 25.5564 44.6479 25.5257 44.9009 25.5562C45.1331 25.5841 45.3793 25.618 45.4479 25.6316C45.5166 25.6451 45.7833 25.7479 46.0406 25.8599ZM22.7814 37.6133C22.6648 37.6012 22.3767 37.589 22.1413 37.586C21.9057 37.583 21.4834 37.6283 21.2028 37.6866C20.9221 37.7448 20.4985 37.8762 20.2613 37.9785C20.0241 38.0807 19.6488 38.3093 19.4272 38.4865C19.2056 38.6636 18.7632 39.0977 18.444 39.451C18.1249 39.8044 17.6133 40.4117 17.3071 40.8007C17.001 41.1896 16.3086 42.1413 15.7685 42.9156C15.2283 43.6899 14.4702 44.8204 14.0837 45.4279C13.6972 46.0354 13.356 46.6256 13.3255 46.7395C13.2866 46.8846 13.3205 47.0339 13.4387 47.2387C13.5584 47.446 13.6688 47.5474 13.8186 47.5876C13.9348 47.6187 14.7024 47.613 15.5244 47.575C16.3464 47.537 17.6568 47.4498 18.4364 47.3813C19.2159 47.3127 20.2734 47.1993 20.7862 47.1293C21.2991 47.0593 22.1258 46.9156 22.6233 46.8101C23.1208 46.7046 23.745 46.5333 24.0104 46.4295C24.2759 46.3257 24.6625 46.1146 24.8697 45.9603C25.0768 45.8061 25.4024 45.5049 25.5932 45.291C25.7839 45.0771 26.0458 44.7207 26.1751 44.499C26.3265 44.2393 26.4788 43.8435 26.6034 43.3851C26.7549 42.8285 26.7925 42.5546 26.7766 42.1238C26.7653 41.8211 26.7095 41.3648 26.6523 41.1097C26.5882 40.8238 26.3863 40.3654 26.1257 39.9139C25.8642 39.4611 25.5696 39.0593 25.3532 38.8604C25.1609 38.6836 24.8093 38.4176 24.5721 38.2693C24.3321 38.1192 23.8863 37.9187 23.5671 37.8174C23.2516 37.7172 22.8981 37.6253 22.7814 37.6133Z" stroke="#837EF1" stroke-width="10" stroke-linejoin="round" mask="url(#path-1-outside-1_859_607)"/>
<path d="M46.0406 25.8599C46.3379 25.9894 46.6874 26.217 46.9992 26.4841C47.3406 26.7765 47.5759 27.0536 47.7723 27.3947C47.9275 27.6644 48.1021 28.0934 48.1601 28.3482C48.2182 28.603 48.2704 29.0089 48.2761 29.2501C48.2823 29.508 48.2267 29.9124 48.1413 30.2311C48.0559 30.5498 47.9018 30.9279 47.7676 31.148C47.642 31.3541 47.3975 31.675 47.2242 31.8611C47.051 32.0472 46.7046 32.3198 46.4543 32.4669C46.2041 32.6141 45.8386 32.7787 45.6423 32.8327C45.4459 32.8867 45.1196 32.9477 44.9173 32.9683C44.7149 32.9888 44.3354 32.9835 44.0739 32.9563C43.7302 32.9207 43.4614 32.8478 43.1041 32.6933C42.7756 32.5513 42.4453 32.3386 42.1192 32.0589C41.7752 31.7639 41.5418 31.4879 41.3384 31.1356C41.1393 30.7908 41.0085 30.4318 40.9221 29.9928C40.834 29.5456 40.8159 29.1948 40.8619 28.8289C40.9067 28.4721 40.9935 28.148 41.1341 27.8121C41.2802 27.4627 41.4654 27.1759 41.7698 26.8278C42.0631 26.4924 42.3576 26.2452 42.6985 26.0484C43.0379 25.8524 43.4027 25.7194 43.8381 25.6328C44.2218 25.5564 44.6479 25.5257 44.9009 25.5562C45.1331 25.5841 45.3793 25.618 45.4479 25.6316C45.5166 25.6451 45.7833 25.7479 46.0406 25.8599Z" stroke="#837EF1" stroke-width="10" stroke-linejoin="round" mask="url(#path-1-outside-1_859_607)"/>
</svg>
