<svg width="48" height="48" viewBox="0 0 48 48" fill="none" xmlns="http://www.w3.org/2000/svg">
<path d="M14.05 38H17.05V35H14.05V38ZM14.05 30.2H17.05V21.9H14.05V30.2ZM22.4 38H25.4V29.5H22.4V38ZM22.4 24.9H25.4V21.9H22.4V24.9ZM31.15 38H34.15V35H31.15V38ZM31.15 30.2H34.15V21.9H31.15V30.2ZM11.45 45.25C10.15 45.25 9.04167 44.7916 8.125 43.875C7.20833 42.9583 6.75 41.8499 6.75 40.5499V15.4L19.45 2.69995H36.55C37.85 2.69995 38.9667 3.16662 39.9 4.09995C40.8333 5.03328 41.3 6.14995 41.3 7.44995V40.5499C41.3 41.8499 40.8333 42.9583 39.9 43.875C38.9667 44.7916 37.85 45.25 36.55 45.25H11.45ZM11.45 40.5499H36.55V7.44995H21.5L11.45 17.5V40.5499ZM11.45 40.5499H36.55H11.45Z" fill="black"/>
<path d="M14.05 38H17.05V35H14.05V38ZM14.05 30.2H17.05V21.9H14.05V30.2ZM22.4 38H25.4V29.5H22.4V38ZM22.4 24.9H25.4V21.9H22.4V24.9ZM31.15 38H34.15V35H31.15V38ZM31.15 30.2H34.15V21.9H31.15V30.2ZM11.45 45.25C10.15 45.25 9.04167 44.7916 8.125 43.875C7.20833 42.9583 6.75 41.8499 6.75 40.5499V15.4L19.45 2.69995H36.55C37.85 2.69995 38.9667 3.16662 39.9 4.09995C40.8333 5.03328 41.3 6.14995 41.3 7.44995V40.5499C41.3 41.8499 40.8333 42.9583 39.9 43.875C38.9667 44.7916 37.85 45.25 36.55 45.25H11.45ZM11.45 40.5499H36.55V7.44995H21.5L11.45 17.5V40.5499ZM11.45 40.5499H36.55H11.45Z" fill="#837EF1"/>
</svg>
