<svg width="22" height="22" viewBox="0 0 22 22" fill="none" xmlns="http://www.w3.org/2000/svg">
<g clip-path="url(#clip0_859_679)">
<path d="M10.1035 1.81663C10.4703 1.07346 11.53 1.07346 11.8969 1.81663L13.6002 5.26742C13.7458 5.56227 14.0269 5.76673 14.3523 5.81429L18.163 6.37128C18.983 6.49113 19.3097 7.49897 18.7162 8.07713L15.9603 10.7613C15.7244 10.9911 15.6167 11.3222 15.6724 11.6467L16.3226 15.4376C16.4627 16.2546 15.6052 16.8776 14.8715 16.4917L11.4656 14.7006C11.1742 14.5474 10.8261 14.5474 10.5347 14.7006L7.12879 16.4917C6.39516 16.8776 5.53762 16.2546 5.67774 15.4376L6.32792 11.6467C6.38358 11.3222 6.27591 10.9911 6.04004 10.7613L3.28418 8.07713C2.69058 7.49897 3.01736 6.49113 3.83728 6.37128L7.64803 5.81429C7.97338 5.76673 8.25457 5.56227 8.40011 5.26742L10.1035 1.81663Z" fill="white"/>
</g>
<defs>
<clipPath id="clip0_859_679">
<rect width="22" height="22" fill="white"/>
</clipPath>
</defs>
</svg>
