<svg width="29" height="27" viewBox="0 0 29 27" fill="none" xmlns="http://www.w3.org/2000/svg">
<path d="M23.0814 2.87343L23.0814 2.87341C23.6391 2.65285 24.1543 2.44897 24.5351 2.2982L24.9937 2.11649L25.1253 2.06425C25.1603 2.05033 25.1731 2.0452 25.1723 2.04554M23.0814 2.87343L26.0047 1.95352C25.8866 1.94947 25.7658 1.94978 25.6612 1.9543C25.6098 1.95653 25.5515 1.96022 25.494 1.96674C25.4932 1.96683 25.4921 1.96694 25.4907 1.96709C25.4636 1.96995 25.3201 1.98509 25.1723 2.04554M23.0814 2.87343C21.965 3.31499 19.677 4.22292 17.9966 4.89114L17.9966 4.89115C16.3167 5.5592 12.226 7.18439 8.90611 8.50271C7.24496 9.16236 5.68993 9.78419 4.52246 10.2548C3.38965 10.7114 2.55482 11.0518 2.40151 11.1276L2.40134 11.1277C2.07211 11.2906 1.74818 11.5038 1.49984 11.7835L1.49959 11.7838C1.41027 11.8845 1.32647 11.9953 1.25815 12.0998C1.21543 12.1652 1.09474 12.3507 1.04153 12.5704L1.04141 12.5709C0.988968 12.7879 0.9841 13.0628 1.03968 13.2932L1.03988 13.294C1.08804 13.4928 1.18519 13.6537 1.23304 13.7285C1.29528 13.8258 1.37491 13.9309 1.46673 14.0263C1.63461 14.2006 1.8902 14.3805 2.09639 14.4829L2.54081 13.5885L2.09656 14.483C2.1956 14.5322 2.38067 14.5966 2.51432 14.6431L2.52316 14.6462C2.7013 14.7082 2.9417 14.7898 3.22582 14.8849C3.79482 15.0753 4.54877 15.3229 5.35103 15.582L5.65695 14.6347L5.35106 15.582L8.25915 16.5212L8.69891 16.6632L9.09206 16.4203L9.2384 16.3299L8.7131 15.479M23.0814 2.87343L2.84467 12.0241M25.1723 2.04554L25.5509 2.97111M25.1723 2.04554C25.1719 2.04568 25.1716 2.04582 25.1713 2.04595L25.5509 2.97111M25.5509 2.97111C25.5105 2.9876 24.5648 3.36213 23.4492 3.80333C22.3336 4.24459 20.0462 5.15227 18.3661 5.82037C16.686 6.48852 12.5951 8.11378 9.27518 9.43212C5.95528 10.7505 3.06158 11.9168 2.84467 12.0241M25.5509 2.97111C25.5912 2.95457 25.7801 2.9464 25.9707 2.95294C26.2574 2.96269 26.3532 2.98943 26.5249 3.10742M2.84467 12.0241L26.9871 4.28305C26.9835 4.6832 26.7457 5.89065 25.0684 14.0267C24.0154 19.1345 23.1192 23.4278 23.0768 23.5674C23.0343 23.7069 22.9329 23.9255 22.8512 24.0532M2.84467 12.0241C2.58426 12.1529 2.38152 12.2966 2.2476 12.4475C2.13612 12.5731 2.03074 12.7343 2.01344 12.8058C1.99619 12.8772 1.99545 12.9909 2.01178 13.0586C2.02815 13.1262 2.10699 13.2495 2.187 13.3326C2.26701 13.4156 2.42649 13.5303 2.54135 13.5874C2.65625 13.6445 4.0589 14.1138 5.65836 14.6304L8.56648 15.5695L8.7131 15.479M26.5249 3.10742L27.0911 2.28318C27.4257 2.513 27.6251 2.79661 27.7742 3.12873M26.5249 3.10742L27.0911 2.28318C26.959 2.19243 26.7889 2.09029 26.5595 2.02633C26.356 1.96961 26.159 1.95877 26.005 1.95353L26.5249 3.10742ZM27.7742 3.12873L26.8619 3.53822L27.7741 3.12868C27.7742 3.1287 27.7742 3.12871 27.7742 3.12873ZM27.7742 3.12873C27.8442 3.28471 27.9153 3.46217 27.9537 3.69047C27.9877 3.89285 27.9888 4.09689 27.987 4.29201L27.987 4.29209C27.9842 4.60931 27.8966 5.12617 27.6365 6.44712C27.3659 7.82137 26.8861 10.1623 26.0478 14.2286C25.5212 16.7831 25.0337 19.1342 24.6725 20.8645C24.4919 21.7295 24.3428 22.44 24.236 22.9435C24.1827 23.195 24.1397 23.3961 24.1085 23.5395L24.1053 23.554C24.082 23.6612 24.0533 23.7933 24.0335 23.8582C23.9636 24.0884 23.8228 24.39 23.6938 24.5917M23.6938 24.5917L22.8512 24.0532M23.6938 24.5917C23.6938 24.5918 23.6938 24.5919 23.6937 24.5919L22.8512 24.0532M23.6938 24.5917C23.5625 24.7972 23.3348 25.063 23.109 25.2235L23.1088 25.2236C22.972 25.3208 22.7919 25.4276 22.5399 25.4844C22.3389 25.5296 22.1359 25.5311 21.9842 25.5308L21.9841 25.5308C21.8134 25.5304 21.6285 25.5232 21.4341 25.483C21.2285 25.4405 21.0602 25.3712 20.9086 25.2972C20.9086 25.2971 20.9086 25.2971 20.9085 25.2971L21.3475 24.3986L22.8512 24.0532M8.7131 15.479L9.23869 16.3297M8.7131 15.479C8.79375 15.4292 11.664 13.5658 15.0914 11.3382L9.23869 16.3297M9.23869 16.3297C9.33804 16.2682 12.2242 14.3943 15.6364 12.1767C15.7421 12.1079 15.8474 12.0395 15.9523 11.9714M9.23869 16.3297L15.9523 11.9714M15.9523 11.9714C14.9168 12.9348 13.9419 13.8422 13.3102 14.4305C12.7189 14.9812 12.1803 15.4825 11.7888 15.8465C11.593 16.0285 11.4342 16.176 11.3241 16.2782L11.1978 16.3952L11.1668 16.4237C11.1641 16.4262 11.1631 16.4272 11.1631 16.4272L11.1633 16.427L11.1653 16.4252L11.1706 16.4205C11.1714 16.4197 11.1733 16.4181 11.1759 16.4158C11.1786 16.4135 11.182 16.4106 11.1858 16.4073C11.1894 16.4043 11.1976 16.3974 11.2083 16.3889C11.2137 16.3847 11.2269 16.3745 11.2347 16.3687C11.2359 16.3678 11.2373 16.3668 11.2388 16.3657C11.0319 16.5179 10.9438 16.7072 10.9319 16.7327C10.9314 16.7337 10.931 16.7345 10.9308 16.735C10.8994 16.7997 10.882 16.8536 10.8751 16.876C10.8598 16.9252 10.8518 16.9648 10.8494 16.977C10.8432 17.0077 10.8398 17.0325 10.8388 17.0397L10.8388 17.0398C10.8362 17.0591 10.8344 17.076 10.8336 17.0838C10.8316 17.1026 10.8297 17.1242 10.8279 17.1448C10.8241 17.1878 10.8193 17.2479 10.8136 17.3212C10.8021 17.4688 10.7863 17.6801 10.7675 17.9388C10.7297 18.4566 10.6792 19.1691 10.625 19.9514L10.625 19.9514C10.5191 21.4796 10.4257 22.903 10.4257 23.0544V23.2464V24.4265L11.5898 24.2329L11.7973 24.1984C11.7974 24.1983 11.7975 24.1983 11.7976 24.1983L15.9523 11.9714Z" stroke="white" stroke-width="2"/>
</svg>
