<svg width="17" height="22" viewBox="0 0 17 22" fill="none" xmlns="http://www.w3.org/2000/svg">
<path d="M13.5 11H15.25C15.4489 11 15.6397 11.079 15.7803 11.2197C15.921 11.3603 16 11.5511 16 11.75V20.25C16 20.4489 15.921 20.6397 15.7803 20.7803C15.6397 20.921 15.4489 21 15.25 21H1.75C1.55109 21 1.36032 20.921 1.21967 20.7803C1.07902 20.6397 1 20.4489 1 20.25V11.75C1 11.5511 1.07902 11.3603 1.21967 11.2197C1.36032 11.079 1.55109 11 1.75 11H3.5M13.5 11V6C13.5 4.33375 12.5 1 8.5 1C4.5 1 3.5 4.33375 3.5 6V11M13.5 11H3.5" stroke="#726BEE" stroke-width="2" stroke-linecap="round" stroke-linejoin="round"/>
</svg>
