<svg width="20" height="18" viewBox="0 0 20 18" fill="none" xmlns="http://www.w3.org/2000/svg">
<path fill-rule="evenodd" clip-rule="evenodd" d="M14.614 14.7564C13.1661 15.4019 11.5908 15.7271 10 15.7091C8.3599 15.7291 6.73671 15.3825 5.254 14.6957C4.10468 14.1467 3.07264 13.3883 2.213 12.4612C1.30049 11.5035 0.5833 10.3838 0.0999999 9.16242L0 8.85497L0.105 8.54555C0.82781 6.74027 2.04426 5.16467 3.621 3.99146L5 3.04248L6.25 2.54248L7.5 2.25442C8.3216 2.08232 9.1598 1.99729 10 2.00081C11.6401 1.98089 13.2633 2.32749 14.746 3.01425C15.8953 3.56331 16.9274 4.32163 17.787 5.24871C18.6991 6.20532 19.4163 7.32365 19.9 8.54359L20 8.85497L19.895 9.16438C19.4268 10.3571 18.7342 11.4532 17.853 12.3956L16.5 13.5425L14.616 14.7564H14.614ZM2.117 8.85497C2.74865 7.4574 3.75792 6.25521 5.036 5.37796L6.65361 4.54248L7.95931 4.26354L9.265 3.9846C9.505 3.96796 9.753 3.95915 10 3.95915C13.4047 3.85249 16.5304 5.79369 17.883 8.85497C17.5256 9.64662 17.0456 10.3794 16.46 11.0277L15.1665 12.2646L13.087 13.2612C12.0936 13.5937 11.0498 13.7592 10 13.7508C6.59587 13.8553 3.47142 11.9148 2.117 8.85497Z" fill="#4795DD"/>
<path d="M12.5 8.85497C12.5 10.2357 11.3807 11.355 10 11.355C8.61929 11.355 7.5 10.2357 7.5 8.85497C7.5 7.47425 8.61929 6.35497 10 6.35497C11.3807 6.35497 12.5 7.47425 12.5 8.85497Z" fill="#4795DD"/>
</svg>
