<svg width="50" height="50" viewBox="0 0 50 50" fill="none" xmlns="http://www.w3.org/2000/svg">
<path d="M25.0001 46.1459C22.0487 46.1459 19.2883 45.5904 16.7188 44.4793C14.1494 43.3681 11.9098 41.8577 10.0001 39.948C8.09036 38.0383 6.58862 35.79 5.49487 33.2032C4.40112 30.6164 3.85425 27.8473 3.85425 24.8959C3.85425 21.9445 4.40112 19.1841 5.49487 16.6147C6.58862 14.0452 8.09036 11.8143 10.0001 9.92196C11.9098 8.0296 14.1494 6.54522 16.7188 5.46883C19.2883 4.39244 22.0487 3.85425 25.0001 3.85425C27.9515 3.85425 30.7119 4.39244 33.2813 5.46883C35.8508 6.54522 38.0904 8.0296 40.0001 9.92196C41.9098 11.8143 43.4115 14.0452 44.5053 16.6147C45.599 19.1841 46.1459 21.9445 46.1459 24.8959C46.1459 27.8473 45.599 30.6164 44.5053 33.2032C43.4115 35.79 41.9098 38.0383 40.0001 39.948C38.0904 41.8577 35.8508 43.3681 33.2813 44.4793C30.7119 45.5904 27.9515 46.1459 25.0001 46.1459V46.1459ZM25.0001 42.7084C26.1806 41.4584 27.1789 40.0348 27.9949 38.4376C28.8108 36.8404 29.4792 34.9306 30.0001 32.7084H20.0522C20.5383 34.7917 21.1806 36.6581 21.9792 38.3074C22.7779 39.9567 23.7848 41.4237 25.0001 42.7084ZM20.573 42.0834C19.7049 40.7987 18.9671 39.3924 18.3595 37.8647C17.7518 36.3369 17.2397 34.6181 16.823 32.7084H9.06258C10.3473 35.1737 11.8577 37.1008 13.5938 38.4897C15.3299 39.8786 17.6563 41.0765 20.573 42.0834V42.0834ZM29.4272 42.0313C31.9272 41.2327 34.1668 40.0435 36.1459 38.4636C38.1251 36.8838 39.7223 34.9654 40.9376 32.7084H33.2292C32.7779 34.5834 32.2483 36.2848 31.6407 37.8126C31.0331 39.3404 30.2952 40.7466 29.4272 42.0313V42.0313ZM8.02091 29.6355H16.2501C16.1459 28.698 16.0852 27.856 16.0678 27.1095C16.0504 26.3629 16.0417 25.6251 16.0417 24.8959C16.0417 24.0279 16.0591 23.2553 16.0938 22.5782C16.1286 21.9011 16.198 21.1459 16.3022 20.3126H8.02091C7.77786 21.1459 7.61293 21.8924 7.52612 22.5522C7.43932 23.2119 7.39591 23.9931 7.39591 24.8959C7.39591 25.7987 7.43932 26.606 7.52612 27.3178C7.61293 28.0296 7.77786 28.8022 8.02091 29.6355V29.6355ZM19.4793 29.6355H30.573C30.7119 28.5591 30.7987 27.6824 30.8334 27.0053C30.8681 26.3282 30.8855 25.6251 30.8855 24.8959C30.8855 24.2015 30.8681 23.5331 30.8334 22.8907C30.7987 22.2483 30.7119 21.389 30.573 20.3126H19.4793C19.3404 21.389 19.2536 22.2483 19.2188 22.8907C19.1841 23.5331 19.1667 24.2015 19.1667 24.8959C19.1667 25.6251 19.1841 26.3282 19.2188 27.0053C19.2536 27.6824 19.3404 28.5591 19.4793 29.6355ZM33.698 29.6355H41.9792C42.1876 28.8022 42.3438 28.0296 42.448 27.3178C42.5522 26.606 42.6043 25.7987 42.6043 24.8959C42.6043 23.9931 42.5522 23.2119 42.448 22.5522C42.3438 21.8924 42.1876 21.1459 41.9792 20.3126H33.7501C33.8543 21.5626 33.9237 22.5001 33.9584 23.1251C33.9931 23.7501 34.0105 24.3404 34.0105 24.8959C34.0105 25.6598 33.9845 26.3803 33.9324 27.0574C33.8803 27.7345 33.8022 28.5938 33.698 29.6355ZM33.1772 17.2397H40.9376C39.7917 14.8438 38.2292 12.856 36.2501 11.2761C34.2709 9.69626 31.9793 8.57647 29.3751 7.91675C30.2431 9.20147 30.981 10.5817 31.5886 12.0574C32.1963 13.5331 32.7258 15.2605 33.1772 17.2397V17.2397ZM20.0522 17.2397H30.0522C29.6702 15.3994 29.0279 13.6199 28.1251 11.9011C27.2223 10.1824 26.1806 8.68064 25.0001 7.39591C23.889 8.33341 22.9602 9.55737 22.2136 11.0678C21.4671 12.5782 20.7466 14.6355 20.0522 17.2397V17.2397ZM9.06258 17.2397H16.8751C17.257 15.3647 17.7345 13.698 18.3074 12.2397C18.8803 10.7813 19.6181 9.35772 20.5209 7.96883C17.9515 8.62855 15.6945 9.73098 13.7501 11.2761C11.8056 12.8213 10.2431 14.8091 9.06258 17.2397Z" fill="#837EF1"/>
</svg>
