<svg width="36" height="51" viewBox="0 0 36 51" fill="none" xmlns="http://www.w3.org/2000/svg">
<path d="M33.5 18.1065C33.5 19.344 33.1113 21.0582 32.3076 23.1859C31.5179 25.2763 30.3936 27.597 29.077 29.994C26.4445 34.7871 23.141 39.7106 20.4994 43.4285C19.2448 45.1942 16.7552 45.1942 15.5006 43.4285C12.859 39.7106 9.55551 34.7871 6.92297 29.994C5.60643 27.597 4.48205 25.2763 3.6924 23.1859C2.88868 21.0582 2.5 19.344 2.5 18.1065C2.5 9.47335 9.45347 2.5 18 2.5C26.5465 2.5 33.5 9.47335 33.5 18.1065Z" stroke="#837EF1" stroke-width="5"/>
<circle cx="18" cy="17" r="5" fill="#837EF1"/>
</svg>
