<svg xmlns="http://www.w3.org/2000/svg" viewBox="0 0 51 51" width="51" height="51"><g fill="#3546be"><path d="M21.6.616H3.267c-1.417 0-2.5 1.102-2.5 2.542v18.645c0 1.44 1.083 2.542 2.5 2.542H21.6c1.417 0 2.5-1.102 2.5-2.542V3.158c0-1.44-1.083-2.542-2.5-2.542zm.834 21.187c0 .508-.334.847-.834.847H3.267c-.5 0-.833-.339-.833-.847V3.158c0-.508.333-.847.833-.847H21.6c.5 0 .834.339.834.847v18.645zm21.5-2.797l.5 1.78c.083.423.416.678.833.678.083 0 .167 0 .083-.085.5-.085.75-.593.667-1.017-.083-.678-.333-1.271-.5-1.95-.167-.423-.667-.677-1.083-.508-.417.17-.667.678-.5 1.102zm-1-2.712c.166.339.416.508.75.508.166 0 .25 0 .416-.169.334-.17.5-.678.334-1.102l-1-1.78c-.25-.423-.75-.508-1.167-.254-.417.255-.5.763-.25 1.187.333.508.667 1.017.917 1.61zM31.017 7.057l1.75.508h.25a.803.803 0 0 0 .75-.593c.167-.508-.083-.932-.5-1.102-.667-.17-1.333-.339-1.917-.508a.865.865 0 0 0-1 .678c-.083.424.25.932.667 1.017zm4.333 1.44c.5.255 1.084.594 1.584.933.083.084.25.17.416.17.25 0 .5-.085.667-.34.25-.423.167-.932-.25-1.186-.583-.34-1.167-.678-1.75-1.017-.417-.254-.917-.085-1.083.339-.25.423-.084.932.416 1.101zm5.084 4.068a.75.75 0 0 0 .583.255c.167 0 .333-.085.5-.255.333-.339.417-.847.083-1.186a11.479 11.479 0 0 0-1.416-1.44.881.881 0 0 0-1.167.084.92.92 0 0 0 .083 1.186c.5.424.917.933 1.334 1.356zM8.517 35.7c-.167-.338-.667-.508-1.083-.338-.334.17-.5.678-.334 1.102l1 1.78c.084.254.417.423.667.423a.63.63 0 0 0 .417-.17c.417-.254.5-.762.25-1.186-.334-.508-.667-1.017-.917-1.61zM7.6 33.159l-.5-1.78c-.083-.509-.583-.763-1-.678-.5.085-.75.593-.666 1.017.083.678.333 1.271.5 1.949.166.339.5.593.833.593.083 0 .167-.085.333 0 .417-.17.667-.678.5-1.101zm13.084 11.949l-1.75-.509c-.5-.17-.917.085-1.084.509-.166.508.084.932.5 1.101.584.17 1.25.34 1.917.509h.167c.333 0 .667-.254.917-.593.083-.424-.25-.933-.667-1.017zm-9.5-5.508c-.334-.34-.834-.425-1.167-.086-.333.34-.417.848-.083 1.187a11.4 11.4 0 0 0 1.416 1.44c.167.17.417.255.584.255.166 0 .416-.085.666-.254a.92.92 0 0 0-.083-1.187c-.5-.424-.917-.932-1.333-1.356zm5.083 3.897c-.5-.254-1.083-.593-1.583-.932-.417-.254-.917-.17-1.167.254-.25.424-.167.933.25 1.187l1.75 1.017c.083.085.167.085.333.085.334 0 .584-.17.75-.509.25-.424.084-.932-.333-1.102zm34.495-11.628c-.218-3.203-10.507-3.287-11.662-3.287-1.154 0-11.443.084-11.661 3.287a1.115 1.115 0 0 0-.005.103v15.254c0 3.305 10.5 3.39 11.666 3.39 1.167 0 11.667-.085 11.667-3.39V31.972c0-.035-.002-.07-.005-.103zM49.1 42.057c-.416.678-4.083 1.78-10 1.78-5.916 0-9.583-1.102-10-1.78v-3.051c.55.249 1.205.454 1.911.625 3.16.784 7.375.816 8.09.816.874 0 6.989-.048 10-1.463v3.073zm0-5.085c-.416.678-4.083 1.78-10 1.78-5.916 0-9.583-1.102-10-1.78v-3.05c.55.248 1.204.454 1.91.624 3.16.784 7.376.816 8.09.816.875 0 6.99-.048 10-1.462v3.072zm-10-6.695c5.75 0 9.334 1.017 9.917 1.695a1.106 1.106 0 0 1-.234.193c-1.033.64-4.27 1.44-9.12 1.499h-.016a47.224 47.224 0 0 1-1.093 0h-.017c-4.849-.059-8.086-.86-9.12-1.5a1.095 1.095 0 0 1-.233-.192c.583-.678 4.166-1.695 9.916-1.695zm0 18.644c-5.916 0-9.583-1.101-10-1.78v-3.05c.55.248 1.205.454 1.911.625 3.16.783 7.375.815 8.09.815.874 0 6.989-.047 10-1.462v3.073c-.417.677-4.084 1.78-10 1.78z"/><path d="M4.934 6.548h8.333c.5 0 .833-.339.833-.847 0-.509-.333-.848-.833-.848H4.934c-.5 0-.834.34-.834.848s.334.847.834.847zM16.6 8.243H7.434c-.5 0-.834.34-.834.848s.334.847.834.847H16.6c.5 0 .834-.339.834-.847 0-.509-.334-.848-.834-.848zm-3.333 3.39H4.934c-.5 0-.834.339-.834.847 0 .509.334.848.834.848h8.333c.5 0 .833-.34.833-.848s-.333-.847-.833-.847zM9.1 15.87c0-.508-.333-.847-.833-.847H4.934c-.5 0-.834.339-.834.847 0 .509.334.848.834.848h3.333c.5 0 .833-.34.833-.848zm4.167 2.543H6.6c-.5 0-.833.339-.833.847 0 .509.333.848.833.848h6.667c.5 0 .833-.34.833-.848s-.333-.847-.833-.847z"/></g></svg>