<svg xmlns="http://www.w3.org/2000/svg" viewBox="0 0 51 51" width="51" height="51"><path d="M49.595 18.955a.98.98 0 0 0-1.89.516c.542 1.98.816 4.03.816 6.097 0 12.706-10.336 23.042-23.042 23.042-12.705 0-23.041-10.336-23.041-23.041 0-12.706 10.336-23.042 23.041-23.042a23.066 23.066 0 0 1 17.886 8.52h-1.503a.98.98 0 1 0 0 1.958h3.788a.98.98 0 0 0 .98-.979V8.238a.98.98 0 1 0-1.959 0V9.55A25.026 25.026 0 0 0 25.479.57c-13.785 0-25 11.214-25 25 0 13.785 11.215 25 25 25s25-11.215 25-25a25.08 25.08 0 0 0-.884-6.614z" fill="#3546be"/><path d="M23.403 34.838h-7.885l4.954-4.954a13.263 13.263 0 0 0 3.91-9.44 6.11 6.11 0 0 0-6.103-6.103 6.11 6.11 0 0 0-6.104 6.103.98.98 0 1 0 1.959 0 4.15 4.15 0 0 1 4.145-4.145 4.15 4.15 0 0 1 4.145 4.145c0 3.043-1.185 5.904-3.337 8.056l-6.625 6.625a.979.979 0 0 0 .692 1.671h10.249a.98.98 0 1 0 0-1.958zm15.707-6.724h-2.717V15.32a.98.98 0 0 0-1.82-.502l-8.225 13.773a.979.979 0 0 0 .841 1.482h7.246v5.744a.98.98 0 1 0 1.958 0v-5.744h2.717a.98.98 0 1 0 0-1.959zm-4.675 0h-5.52l5.52-9.244v9.244zM25.48 4.069a.98.98 0 0 0-.98.98v1.276a.98.98 0 0 0 1.959 0V5.048a.98.98 0 0 0-.98-.979zm0 39.764a.98.98 0 0 0-.98.98v1.276a.98.98 0 1 0 1.959 0v-1.277a.98.98 0 0 0-.98-.979zM46.204 24.59h-1.48a.98.98 0 1 0 0 1.958h1.48a.98.98 0 1 0 0-1.959zm-39.969 0h-1.48a.98.98 0 1 0 0 1.958h1.48a.98.98 0 0 0 0-1.959z" fill="#3546be"/><circle r="10.027" cy="149.758" cx="440.022" fill="#3546be" transform="translate(.48 .569) scale(.09766)"/><circle r="10.027" cy="71.977" cx="362.242" fill="#3546be" transform="translate(.48 .569) scale(.09766)"/><circle r="10.027" cy="71.977" cx="149.744" fill="#3546be" transform="translate(.48 .569) scale(.09766)"/><circle r="10.027" cy="149.758" cx="71.969" fill="#3546be" transform="translate(.48 .569) scale(.09766)"/><circle r="10.027" cy="362.256" cx="71.969" fill="#3546be" transform="translate(.48 .569) scale(.09766)"/><circle r="10.027" cy="440.035" cx="149.744" fill="#3546be" transform="translate(.48 .569) scale(.09766)"/><circle r="10.027" cy="440.022" cx="362.242" fill="#3546be" transform="translate(.48 .569) scale(.09766)"/><circle r="10.027" cy="362.242" cx="440.022" fill="#3546be" transform="translate(.48 .569) scale(.09766)"/></svg>