<svg xmlns="http://www.w3.org/2000/svg" viewBox="0 0 51 51" width="51" height="51"><g fill="#3546be"><path d="M2.98 12.338h33.333c1.416 0 2.5-1.102 2.5-2.543v-6.78c0-1.44-1.084-2.542-2.5-2.542H2.979C1.563.473.48 1.575.48 3.016v6.78c0 1.44 1.084 2.542 2.5 2.542zm-.834-9.322c0-.509.333-.848.833-.848h33.334c.5 0 .833.34.833.848v6.78c0 .508-.333.847-.833.847H2.979c-.5 0-.833-.34-.833-.848v-6.78zM2.98 25.05h33.333c1.416 0 2.5-1.102 2.5-2.543v-6.78c0-1.44-1.084-2.542-2.5-2.542H2.979c-1.416 0-2.5 1.102-2.5 2.542v6.78c0 1.44 1.084 2.542 2.5 2.542zm-.834-9.322c0-.509.333-.848.833-.848h33.334c.5 0 .833.339.833.848v6.78c0 .508-.333.847-.833.847H2.979c-.5 0-.833-.34-.833-.848v-6.78zM47.98 25.897H14.645c-1.417 0-2.5 1.102-2.5 2.542v2.543h-5c-.5 0-.833.339-.833.847 0 .509.333.848.833.848h5v2.542c0 1.44 1.083 2.542 2.5 2.542H47.98c1.417 0 2.5-1.101 2.5-2.542v-6.78c0-1.44-1.083-2.542-2.5-2.542zm.833 9.322c0 .508-.334.847-.834.847H14.646c-.5 0-.833-.339-.833-.847v-2.542h3.833l-1.083 1.101a.829.829 0 0 0 0 1.187.75.75 0 0 0 .583.254.75.75 0 0 0 .583-.254l2.358-2.398c.245-.138.392-.4.392-.738 0-.338-.147-.6-.392-.738l-2.358-2.398a.796.796 0 0 0-1.166 0 .829.829 0 0 0 0 1.187l1.083 1.102h-3.833v-2.543c0-.508.333-.847.833-.847h33.333c.5 0 .834.339.834.847v6.78zm-12.5 3.39H2.979c-1.416 0-2.5 1.102-2.5 2.542v6.78c0 1.44 1.084 2.542 2.5 2.542h33.334c1.416 0 2.5-1.101 2.5-2.542v-6.78c0-1.44-1.084-2.542-2.5-2.542zm.833 9.322c0 .508-.333.847-.833.847H2.979c-.5 0-.833-.339-.833-.847v-6.78c0-.508.333-.847.833-.847h33.334c.5 0 .833.339.833.847v6.78z"/><path d="M44.646 30.982h-20c-.5 0-.833.339-.833.847 0 .509.333.848.833.848h20c.5 0 .833-.34.833-.848s-.333-.847-.833-.847zM12.98 19.965h20c.5 0 .833-.34.833-.848s-.334-.847-.834-.847h-20c-.5 0-.833.339-.833.847 0 .509.333.848.833.848zm-5.834.847c.917 0 1.667-.762 1.667-1.695 0-.932-.75-1.695-1.667-1.695s-1.667.763-1.667 1.695c0 .933.75 1.695 1.667 1.695zM12.98 7.253h20c.5 0 .833-.34.833-.848s-.334-.847-.834-.847h-20c-.5 0-.833.339-.833.847 0 .509.333.848.833.848zM7.146 8.1c.917 0 1.667-.762 1.667-1.695 0-.932-.75-1.695-1.667-1.695S5.48 5.473 5.48 6.405c0 .933.75 1.695 1.667 1.695zM32.98 43.694h-20c-.5 0-.834.339-.834.847s.333.847.833.847h20c.5 0 .834-.339.834-.847s-.334-.847-.834-.847zm-25.834-.848c-.917 0-1.667.763-1.667 1.695s.75 1.695 1.667 1.695 1.667-.763 1.667-1.695-.75-1.695-1.667-1.695z"/></g></svg>