<svg xmlns="http://www.w3.org/2000/svg" viewBox="0 0 51 51" width="51" height="51"><path d="M49.652 38.939a.889.889 0 0 0-.89.888c0 4.919-4.013 8.921-8.946 8.921a.889.889 0 0 0-.89.888c0 .49.399.887.89.887 5.915 0 10.726-4.798 10.726-10.696a.889.889 0 0 0-.89-.888z" fill="#3546be"/><path d="M46.374 38.939a.889.889 0 0 0-.89.888c0 3.116-2.543 5.651-5.668 5.651a.889.889 0 0 0-.89.888c0 .49.399.888.89.888 4.107 0 7.448-3.332 7.448-7.427a.889.889 0 0 0-.89-.888z" fill="#3546be"/><path d="M43.095 38.939a.889.889 0 0 0-.89.888 2.388 2.388 0 0 1-2.389 2.382.889.889 0 0 0-.89.887c0 .49.399.888.89.888a4.168 4.168 0 0 0 4.17-4.157.889.889 0 0 0-.89-.888z" fill="#3546be"/><path d="M36.93 20.878a.889.889 0 0 0 1.258 0L50.038 9.06a.886.886 0 0 0 0-1.255L42.995.783a.892.892 0 0 0-1.258 0l-11.85 11.818a.886.886 0 0 0 0 1.255l2.891 2.883-2.343 2.337-4.5-4.489a4.965 4.965 0 0 0-6.388-.515l-2.065-2.06a.89.89 0 0 0-1.259 0l-4.16 4.15a.886.886 0 0 0 0 1.256l2.064 2.058a4.888 4.888 0 0 0-.932 2.882c0 1.318.514 2.557 1.449 3.49l4.5 4.488-2.342 2.336-2.892-2.883a.892.892 0 0 0-1.258 0L.803 41.607a.886.886 0 0 0 0 1.255l7.041 7.022a.889.889 0 0 0 1.259 0l11.85-11.818a.886.886 0 0 0 0-1.255l-2.892-2.883 2.343-2.337 5.874 5.858a.889.889 0 0 0 1.259 0l2.306-2.3 1.47 1.465a8.508 8.508 0 0 0 2.064 8.7.889.889 0 0 0 1.259 0l4.78-4.767.335.333a.888.888 0 0 0 1.258 0 .886.886 0 0 0 0-1.255l-.334-.334 4.78-4.767a.886.886 0 0 0 0-1.255c-2.356-2.35-5.756-3.035-8.723-2.06l-1.47-1.465 2.307-2.3a.886.886 0 0 0 0-1.255l-5.874-5.858 2.343-2.337 2.891 2.884zM8.472 48L2.69 42.233l6.647-6.629 5.782 5.767L8.473 48zm10.591-10.562l-2.685 2.677-5.782-5.766 2.685-2.678 5.782 5.767zM13.951 16.79l2.903-2.894 1.39 1.385-2.903 2.895-1.39-1.386zm1.025 5.569c0-.844.33-1.637.928-2.234l4.294-4.283a3.162 3.162 0 0 1 2.24-.923 3.17 3.17 0 0 1 1.753.527l-8.686 8.662a3.13 3.13 0 0 1-.53-1.75zm16.126 11.535l2.902-2.895 1.002 1a8.523 8.523 0 0 0-2.902 2.894l-1.002-1zm8.314-1.341c1.451 0 2.902.461 4.11 1.385l-9.478 9.452a6.738 6.738 0 0 1 5.368-10.837zm-3.735-5.737l-8.774 8.75-1.171-1.168 8.773-8.75 1.172 1.168zm-2.43-2.424l-8.774 8.75-7.757-7.735 8.774-8.75 7.757 7.735zm9.116-21.726l5.782 5.766-6.646 6.63-5.783-5.767 6.647-6.629zm-10.59 10.562l2.685-2.678 5.782 5.767-2.685 2.678-5.783-5.767z" fill="#3546be"/></svg>