<svg width="867" height="867" viewBox="0 0 867 867" fill="none" xmlns="http://www.w3.org/2000/svg">
<path d="M647 433.5C647 551.965 550.965 648 432.5 648C314.035 648 218 551.965 218 433.5C218 315.035 314.035 219 432.5 219C550.965 219 647 315.035 647 433.5ZM239.45 433.5C239.45 540.119 325.881 626.55 432.5 626.55C539.119 626.55 625.55 540.119 625.55 433.5C625.55 326.881 539.119 240.45 432.5 240.45C325.881 240.45 239.45 326.881 239.45 433.5Z" fill="#DA5583" fill-opacity="0.3"/>
<path d="M781 434C781 626.195 625.195 782 433 782C240.805 782 85 626.195 85 434C85 241.805 240.805 86 433 86C625.195 86 781 241.805 781 434ZM119.8 434C119.8 606.976 260.024 747.2 433 747.2C605.976 747.2 746.2 606.976 746.2 434C746.2 261.024 605.976 120.8 433 120.8C260.024 120.8 119.8 261.024 119.8 434Z" fill="#DA5583" fill-opacity="0.1"/>
<path d="M867 433.5C867 672.915 672.915 867 433.5 867C194.085 867 0 672.915 0 433.5C0 194.085 194.085 0 433.5 0C672.915 0 867 194.085 867 433.5ZM43.35 433.5C43.35 648.974 218.026 823.65 433.5 823.65C648.974 823.65 823.65 648.974 823.65 433.5C823.65 218.026 648.974 43.35 433.5 43.35C218.026 43.35 43.35 218.026 43.35 433.5Z" fill="#DA5583" fill-opacity="0.05"/>
<path d="M710 433.5C710 586.759 585.759 711 432.5 711C279.241 711 155 586.759 155 433.5C155 280.241 279.241 156 432.5 156C585.759 156 710 280.241 710 433.5ZM182.75 433.5C182.75 571.433 294.567 683.25 432.5 683.25C570.433 683.25 682.25 571.433 682.25 433.5C682.25 295.567 570.433 183.75 432.5 183.75C294.567 183.75 182.75 295.567 182.75 433.5Z" fill="#DA5583" fill-opacity="0.2"/>
</svg>
