<svg width="22" height="22" viewBox="0 0 22 22" fill="none" xmlns="http://www.w3.org/2000/svg">
<path d="M11 16.621L5.44029 11.0597L6.55129 9.92986L10.2143 13.5929V0H11.7857V13.5929L15.4471 9.93143L16.5597 11.0597L11 16.621ZM2.53786 22C1.815 22 1.21157 21.758 0.727571 21.274C0.242524 20.789 0 20.185 0 19.4621V15.6546H1.57143V19.4621C1.57143 19.7031 1.672 19.9247 1.87314 20.1269C2.07533 20.328 2.2969 20.4286 2.53786 20.4286H19.4621C19.7031 20.4286 19.9247 20.328 20.1269 20.1269C20.328 19.9247 20.4286 19.7031 20.4286 19.4621V15.6546H22V19.4621C22 20.185 21.758 20.7884 21.274 21.2724C20.789 21.7575 20.185 22 19.4621 22H2.53786Z" fill="#4D4B77"/>
</svg>
