<svg width="22" height="22" viewBox="0 0 22 22" fill="none" xmlns="http://www.w3.org/2000/svg">
<path d="M13.4667 3.46725L15.234 1.69987C15.4558 1.47799 15.7191 1.30198 16.009 1.1819C16.2988 1.06181 16.6094 1 16.9231 1C17.2369 1 17.5475 1.06181 17.8373 1.1819C18.1271 1.30198 18.3905 1.47799 18.6122 1.69987L20.3007 3.38844C20.7485 3.83632 21 4.4437 21 5.077C21 5.71031 20.7485 6.31769 20.3007 6.76557L18.5334 8.53295M13.4667 3.46725L1.98392 14.9493C1.58744 15.3458 1.34311 15.8691 1.29371 16.4276L1.00473 19.6997C0.989206 19.8736 1.01202 20.0489 1.07157 20.213C1.13112 20.3772 1.22594 20.5263 1.34936 20.6498C1.47279 20.7734 1.6218 20.8684 1.78591 20.9281C1.95002 20.9877 2.12522 21.0107 2.29917 20.9954L5.5711 20.7064C6.13046 20.6575 6.65473 20.4131 7.05182 20.0161L18.5334 8.53295M13.4667 3.46725L18.5334 8.53295" stroke="#4D4B77" stroke-width="1.5" stroke-linecap="round" stroke-linejoin="round"/>
</svg>
