<svg width="24" height="24" viewBox="0 0 24 24" fill="none" xmlns="http://www.w3.org/2000/svg">
<g clip-path="url(#clip0_735_13997)">
<path d="M0 0H24V24H0V0Z" fill="#00ABC2"/>
<path d="M12.9706 13.3085C14.7547 13.3085 16.201 11.8622 16.201 10.0781C16.201 8.29396 14.7547 6.84766 12.9706 6.84766C11.1865 6.84766 9.74023 8.29396 9.74023 10.0781C9.74023 11.8622 11.1865 13.3085 12.9706 13.3085Z" fill="#FFEC2D"/>
<path d="M12.971 6.40796C13.163 6.40556 13.235 6.28556 13.235 6.14156C13.235 5.94956 12.971 5.03516 12.971 5.03516C12.971 5.03516 12.707 5.94956 12.707 6.14156C12.707 6.28556 12.779 6.40796 12.971 6.40796Z" fill="#FFEC2D"/>
<path d="M16.6389 10.0785C16.6413 10.2705 16.7613 10.3425 16.9053 10.3425C17.0973 10.3425 18.0117 10.0785 18.0117 10.0785C18.0117 10.0785 17.0973 9.81445 16.9053 9.81445C16.7613 9.81445 16.6389 9.88645 16.6389 10.0785Z" fill="#FFEC2D"/>
<path d="M12.9704 13.7463C12.7784 13.7487 12.7064 13.8687 12.7064 14.0127C12.7064 14.2047 12.9704 15.1191 12.9704 15.1191C12.9704 15.1191 13.2344 14.2047 13.2344 14.0127C13.2344 13.8687 13.1624 13.7463 12.9704 13.7463Z" fill="#FFEC2D"/>
<path d="M9.30053 10.0778C9.29813 9.8858 9.17813 9.8138 9.03413 9.8138C8.84213 9.8138 7.92773 10.0778 7.92773 10.0778C7.92773 10.0778 8.84213 10.3418 9.03413 10.3418C9.17813 10.3418 9.30053 10.2698 9.30053 10.0778Z" fill="#FFEC2D"/>
<path d="M14.3748 6.68769C14.5531 6.75895 14.6656 6.67564 14.7207 6.5426C14.7941 6.36521 14.9002 5.41939 14.9002 5.41939C14.9002 5.41939 14.3063 6.16315 14.2328 6.34054C14.1777 6.47358 14.1974 6.61421 14.3748 6.68769Z" fill="#FFEC2D"/>
<path d="M16.3611 11.4822C16.2899 11.6605 16.3732 11.773 16.5062 11.8281C16.6836 11.9016 17.6294 12.0076 17.6294 12.0076C17.6294 12.0076 16.8857 11.4137 16.7083 11.3403C16.5752 11.2852 16.4346 11.3048 16.3611 11.4822Z" fill="#FFEC2D"/>
<path d="M11.5666 13.4686C11.3883 13.3973 11.2759 13.4806 11.2207 13.6137C11.1473 13.791 11.0413 14.7369 11.0413 14.7369C11.0413 14.7369 11.6351 13.9931 11.7086 13.8157C11.7637 13.6827 11.744 13.542 11.5666 13.4686Z" fill="#FFEC2D"/>
<path d="M9.58027 8.67402C9.65153 8.49572 9.56821 8.38328 9.43517 8.32817C9.25779 8.2547 8.31197 8.14867 8.31197 8.14867C8.31197 8.14867 9.05573 8.7425 9.23312 8.81598C9.36616 8.87109 9.50679 8.85141 9.58027 8.67402Z" fill="#FFEC2D"/>
<path d="M15.5656 7.48356C15.703 7.61763 15.8388 7.58369 15.9406 7.48187C16.0764 7.3461 16.5363 6.51285 16.5363 6.51285C16.5363 6.51285 15.703 6.97275 15.5673 7.10851C15.4654 7.21034 15.4298 7.3478 15.5656 7.48356Z" fill="#FFEC2D"/>
<path d="M15.5653 12.673C15.4312 12.8105 15.4651 12.9462 15.567 13.048C15.7027 13.1838 16.536 13.6437 16.536 13.6437C16.536 13.6437 16.0761 12.8105 15.9403 12.6747C15.8385 12.5729 15.701 12.5372 15.5653 12.673Z" fill="#FFEC2D"/>
<path d="M10.3758 12.6727C10.2384 12.5386 10.1026 12.5726 10.0008 12.6744C9.86502 12.8101 9.40512 13.6434 9.40512 13.6434C9.40512 13.6434 10.2384 13.1835 10.3741 13.0477C10.476 12.9459 10.5116 12.8085 10.3758 12.6727Z" fill="#FFEC2D"/>
<path d="M10.3761 7.48326C10.5102 7.3458 10.4763 7.21003 10.3744 7.10821C10.2387 6.97244 9.40543 6.51254 9.40543 6.51254C9.40543 6.51254 9.86533 7.3458 10.0011 7.48156C10.1029 7.58339 10.2404 7.61902 10.3761 7.48326Z" fill="#FFEC2D"/>
<path d="M16.3601 8.67355C16.4358 8.85002 16.5742 8.87061 16.7072 8.81551C16.8846 8.74203 17.6284 8.1482 17.6284 8.1482C17.6284 8.1482 16.6825 8.25422 16.5052 8.3277C16.3721 8.3828 16.2866 8.49616 16.3601 8.67355Z" fill="#FFEC2D"/>
<path d="M14.3753 13.4694C14.1988 13.5451 14.1782 13.6836 14.2333 13.8166C14.3068 13.994 14.9006 14.7377 14.9006 14.7377C14.9006 14.7377 14.7946 13.7919 14.7211 13.6145C14.666 13.4815 14.5527 13.396 14.3753 13.4694Z" fill="#FFEC2D"/>
<path d="M9.57938 11.4827C9.50369 11.3062 9.36527 11.2856 9.23223 11.3407C9.05485 11.4142 8.31108 12.008 8.31108 12.008C8.31108 12.008 9.2569 11.902 9.43429 11.8286C9.56733 11.7734 9.65286 11.6601 9.57938 11.4827Z" fill="#FFEC2D"/>
<path d="M11.5661 6.68876C11.7426 6.61307 11.7632 6.47465 11.7081 6.34161C11.6346 6.16422 11.0408 5.42046 11.0408 5.42046C11.0408 5.42046 11.1468 6.36628 11.2203 6.54366C11.2754 6.6767 11.3887 6.76223 11.5661 6.68876Z" fill="#FFEC2D"/>
<path d="M13.6891 6.478C13.8779 6.51326 13.972 6.4097 14.0002 6.26849C14.0378 6.08021 13.9581 5.13181 13.9581 5.13181C13.9581 5.13181 13.52 5.97675 13.4824 6.16503C13.4542 6.30624 13.5008 6.44037 13.6891 6.478Z" fill="#FFEC2D"/>
<path d="M16.5689 10.7965C16.5336 10.9853 16.6372 11.0794 16.7784 11.1076C16.9667 11.1452 17.9151 11.0655 17.9151 11.0655C17.9151 11.0655 17.0701 10.6275 16.8818 10.5898C16.7406 10.5616 16.6065 10.6082 16.5689 10.7965Z" fill="#FFEC2D"/>
<path d="M12.2503 13.6763C12.0616 13.641 11.9675 13.7446 11.9393 13.8858C11.9016 14.0741 11.9814 15.0225 11.9814 15.0225C11.9814 15.0225 12.4194 14.1775 12.457 13.9893C12.4852 13.8481 12.4386 13.7139 12.2503 13.6763Z" fill="#FFEC2D"/>
<path d="M9.37253 9.35777C9.4078 9.16902 9.30423 9.0749 9.16302 9.04669C8.97474 9.00906 8.02634 9.08877 8.02634 9.08877C8.02634 9.08877 8.87128 9.52683 9.05956 9.56445C9.20077 9.59267 9.33491 9.54605 9.37253 9.35777Z" fill="#FFEC2D"/>
<path d="M15.0123 7.02787C15.1732 7.13269 15.2998 7.07302 15.3799 6.95336C15.4867 6.79381 15.776 5.8871 15.776 5.8871C15.776 5.8871 15.048 6.50009 14.9412 6.65964C14.861 6.7793 14.8528 6.92106 15.0123 7.02787Z" fill="#FFEC2D"/>
<path d="M16.021 12.1178C15.9161 12.2787 15.9758 12.4053 16.0955 12.4854C16.255 12.5922 17.1617 12.8815 17.1617 12.8815C17.1617 12.8815 16.5487 12.1534 16.3892 12.0466C16.2695 11.9665 16.1278 11.9583 16.021 12.1178Z" fill="#FFEC2D"/>
<path d="M10.9291 13.1264C10.7682 13.0216 10.6416 13.0813 10.5615 13.2009C10.4547 13.3605 10.1654 14.2672 10.1654 14.2672C10.1654 14.2672 10.8934 13.6542 11.0003 13.4947C11.0804 13.375 11.0886 13.2332 10.9291 13.1264Z" fill="#FFEC2D"/>
<path d="M9.9224 8.03649C10.0272 7.87561 9.96755 7.74902 9.84789 7.66891C9.68834 7.5621 8.78163 7.27281 8.78163 7.27281C8.78163 7.27281 9.39462 8.00086 9.55417 8.10767C9.67383 8.18778 9.81559 8.19604 9.9224 8.03649Z" fill="#FFEC2D"/>
<path d="M16.022 8.03992C16.1305 8.19832 16.2703 8.19164 16.3901 8.11175C16.5498 8.00522 17.1641 7.27823 17.1641 7.27823C17.1641 7.27823 16.2568 7.56594 16.0971 7.67247C15.9773 7.75237 15.9154 7.88019 16.022 8.03992Z" fill="#FFEC2D"/>
<path d="M15.005 13.1294C14.8466 13.2379 14.8533 13.3777 14.9332 13.4975C15.0397 13.6572 15.7667 14.2715 15.7667 14.2715C15.7667 14.2715 15.479 13.3643 15.3724 13.2045C15.2926 13.0847 15.1647 13.0228 15.005 13.1294Z" fill="#FFEC2D"/>
<path d="M9.9175 12.1124C9.80898 11.954 9.66919 11.9607 9.54939 12.0406C9.38966 12.1471 8.7754 12.8741 8.7754 12.8741C8.7754 12.8741 9.68261 12.5864 9.84235 12.4799C9.96215 12.4 10.024 12.2722 9.9175 12.1124Z" fill="#FFEC2D"/>
<path d="M10.9345 7.02297C11.0929 6.91444 11.0862 6.77466 11.0063 6.65486C10.8997 6.49512 10.1728 5.88086 10.1728 5.88086C10.1728 5.88086 10.4605 6.78808 10.567 6.94782C10.6469 7.06762 10.7747 7.1295 10.9345 7.02297Z" fill="#FFEC2D"/>
<path d="M16.5699 9.36546C16.6095 9.55334 16.7412 9.60066 16.8825 9.57269C17.0708 9.5354 17.9165 9.09882 17.9165 9.09882C17.9165 9.09882 16.9682 9.01745 16.7799 9.05474C16.6386 9.08271 16.5326 9.17712 16.5699 9.36546Z" fill="#FFEC2D"/>
<path d="M13.6834 13.6773C13.4955 13.7169 13.4482 13.8486 13.4761 13.9899C13.5134 14.1782 13.95 15.0239 13.95 15.0239C13.95 15.0239 14.0314 14.0757 13.9941 13.8873C13.9661 13.7461 13.8717 13.64 13.6834 13.6773Z" fill="#FFEC2D"/>
<path d="M9.37155 10.7908C9.3319 10.6029 9.2002 10.5556 9.05894 10.5836C8.8706 10.6209 8.02489 11.0574 8.02489 11.0574C8.02489 11.0574 8.97316 11.1388 9.1615 11.1015C9.30276 11.0735 9.40884 10.9791 9.37155 10.7908Z" fill="#FFEC2D"/>
<path d="M12.258 6.47897C12.4459 6.43932 12.4932 6.30762 12.4653 6.16637C12.428 5.97802 11.9914 5.13232 11.9914 5.13232C11.9914 5.13232 11.91 6.08058 11.9473 6.26892C11.9753 6.41018 12.0697 6.51626 12.258 6.47897Z" fill="#FFEC2D"/>
<path d="M12.8576 15.7206C12.7736 15.8718 12.7232 16.047 12.6176 16.1838C12.2912 15.8886 11.8208 15.8958 11.408 15.879C11.0672 15.8598 10.6976 15.8286 10.4336 15.5862C10.1576 15.3582 9.92962 15.0654 9.62242 14.8806C9.33373 14.8184 9.06241 14.693 8.82802 14.5134C8.34322 14.1174 8.06482 13.5294 7.58962 13.1214C7.50082 13.035 7.39282 12.9654 7.29202 12.891C7.19602 12.915 7.23922 13.1214 7.12162 13.0158C7.05682 12.9678 6.89602 12.9654 6.88162 13.0302C7.02562 13.2222 7.17202 13.4382 7.19362 13.683C7.09282 13.6926 6.91762 13.6614 6.86962 13.6974C7.00151 13.8952 7.16725 14.0682 7.35922 14.2086C7.26802 14.223 7.08802 14.2158 7.05202 14.2518C7.23171 14.4238 7.45355 14.5455 7.69522 14.6046C7.74322 14.6718 7.62082 14.8014 7.72642 14.859C7.78642 14.883 7.98802 14.9262 7.84882 14.9958C7.75282 15.0582 7.78882 15.2094 7.91122 15.2046C7.98802 15.2454 8.16082 15.2526 8.17522 15.3246C8.10562 15.3918 7.89442 15.4734 8.07442 15.5406C8.24412 15.6367 8.434 15.6918 8.62882 15.7014C8.53282 15.783 8.41282 15.8286 8.31442 15.9054C8.75842 16.167 9.25042 16.3374 9.74002 16.5054C9.93202 16.5678 10.1312 16.6278 10.3328 16.6662C9.74722 16.6326 9.18082 16.4598 8.64802 16.2222C8.37202 16.1022 8.09602 15.9846 7.81282 15.8814C7.93522 15.8166 8.07922 15.7998 8.20882 15.7446C7.94002 15.6918 7.64962 15.6726 7.41682 15.5286C7.45042 15.4614 7.58482 15.459 7.66162 15.4254C7.80562 15.3918 7.89202 15.3534 7.69282 15.339C7.49122 15.2838 7.26082 15.3078 7.08082 15.1878C7.09282 15.1158 7.28002 15.1398 7.35442 15.1086C7.45042 15.0918 7.55602 15.0774 7.63282 15.0126C7.32082 14.8854 6.91282 14.9766 6.66802 14.7006C6.61282 14.595 6.84322 14.679 6.90802 14.6622C7.07602 14.6622 7.25602 14.715 7.41682 14.6478C6.96082 14.4486 6.47362 14.2638 6.12802 13.8942C6.08962 13.8342 5.97442 13.671 6.06802 13.6518C6.33682 13.6878 6.53122 13.9806 6.82162 13.935C6.86002 13.8846 6.65362 13.8006 6.60082 13.7262C6.16667 13.3773 5.78796 12.9646 5.47762 12.5022C5.45842 12.3414 5.70562 12.3174 5.77042 12.4398C6.09202 12.7518 6.38242 13.1118 6.78322 13.323C6.92722 13.3926 6.70162 13.2414 6.67282 13.1862C6.29162 12.7636 5.9621 12.2971 5.69122 11.7966C5.64322 11.7054 5.56882 11.5398 5.70802 11.4918C5.84482 11.4222 5.98402 11.5158 6.05362 11.6358C6.32482 11.979 6.52642 12.387 6.86482 12.6726C6.57682 12.1134 6.26722 11.5206 6.26002 10.8774C6.26722 10.7526 6.27442 10.5654 6.44482 10.5678C6.58882 10.5462 6.56482 10.7286 6.61282 10.815C6.75202 11.2902 6.81202 11.8038 7.09282 12.2214C7.03282 11.871 6.93922 11.5086 7.00162 11.151C7.01602 11.031 7.14562 10.9974 7.23442 11.0694C7.30402 11.2374 7.31842 11.451 7.38082 11.6334C7.75487 12.8757 8.54242 13.9529 9.61282 14.6862C10.4893 15.2859 11.512 15.6367 12.572 15.7014C12.668 15.711 12.764 15.7134 12.8576 15.7182M16.1312 17.9046C15.9584 18.0102 15.824 17.823 15.68 17.7678C15.5744 17.8254 15.5648 18.0126 15.4688 18.1038C15.3536 18.2358 15.2096 18.0654 15.2216 17.9358C15.0824 18.0534 15.0128 18.3198 14.7896 18.2814C14.6816 18.195 14.6024 18.0126 14.5208 18.2214C14.456 18.3222 14.2808 18.4662 14.1872 18.3126C14.1584 18.1782 14.0912 18.0198 14.0192 18.2334C13.9664 18.387 13.8032 18.4974 13.6496 18.4302C13.5632 18.3606 13.7168 18.1014 13.6088 18.1182C13.4456 18.2286 13.3496 18.495 13.1216 18.4734C13.0328 18.3774 13.1768 18.207 13.0784 18.0966C12.9656 18.243 12.8384 18.459 12.6392 18.4734C12.5432 18.3966 12.644 18.1734 12.5816 18.1422C12.38 18.2622 12.164 18.4806 11.9096 18.4134C12.008 18.0294 12.4256 17.8974 12.7736 17.8686C13.376 17.7942 14.0096 17.931 14.5904 17.7126C14.684 17.655 14.9096 17.5758 14.8304 17.4438C14.7584 17.3382 15.0152 17.379 15.0392 17.2566C15.0248 17.103 15.1592 17.1246 15.2888 17.1126C15.8744 17.0862 16.4528 17.2086 17.036 17.2302C17.0792 17.5134 16.7648 17.7126 16.508 17.6262C16.388 17.6454 16.208 17.3478 16.244 17.5638C16.22 17.679 16.2344 17.8278 16.1312 17.9046ZM11.1536 17.3238C11.288 17.4462 11.384 17.2998 11.5112 17.2446C11.9266 17.0819 12.3169 16.8613 12.6704 16.5894C12.8912 16.407 13.0832 16.1694 13.3808 16.1094C13.9616 15.9342 14.5784 15.9558 15.1592 15.7926C15.6032 15.1878 16.3544 14.9694 16.9856 14.6214C17.1272 14.5782 17.1824 14.4606 17.2256 14.3334C17.4656 13.9518 17.7944 13.6158 18.1832 13.3854C18.3667 13.277 18.583 13.2378 18.7928 13.275C18.7639 13.5198 18.647 13.7458 18.464 13.911C18.6056 13.9086 18.728 13.8198 18.8672 13.8246C18.9152 14.079 18.6416 14.211 18.4952 14.3694C18.5768 14.3886 18.8888 14.4126 18.7184 14.4942C18.5024 14.643 18.2552 14.7462 18.056 14.9214C18.2408 14.955 18.2624 14.9934 18.0752 15.0606C17.972 15.1278 17.7776 15.1518 17.7584 15.2862C17.8976 15.3726 17.696 15.4542 17.6168 15.483C17.468 15.519 17.3096 15.5838 17.5088 15.699C17.4344 15.8118 17.2712 15.8358 17.1392 15.8238C17.18 15.9534 17.2376 16.0974 17.072 16.155C16.7006 16.4486 16.2556 16.6346 15.7856 16.6926C16.3736 16.7358 16.9808 16.6278 17.4824 16.3086C17.5496 16.2294 17.8976 16.143 17.7032 16.0782C17.612 16.0398 17.4152 15.9966 17.4008 15.927C17.6744 15.759 18.0176 15.819 18.3104 15.7206C18.3176 15.6246 18.0872 15.651 18.0008 15.6294C17.7968 15.6126 17.8088 15.5598 18.0056 15.5406C18.2552 15.4734 18.5384 15.4614 18.7496 15.3006C18.5792 15.219 18.3632 15.2886 18.1808 15.2238C18.4904 15.0894 18.8552 15.075 19.1336 14.871C19.2608 14.7294 18.9704 14.775 18.8864 14.7774C18.716 14.8086 18.6368 14.7246 18.8312 14.655C19.1648 14.4078 19.5848 14.2494 19.82 13.8942C19.8752 13.815 19.9496 13.575 19.772 13.659C19.5416 13.7382 19.3376 13.9974 19.0712 13.9182C19.5944 13.5126 20.0888 13.0542 20.4464 12.495C20.4656 12.3318 20.2112 12.315 20.1464 12.4422C19.8104 12.7638 19.508 13.1454 19.0784 13.3494C19.4834 12.9445 19.835 12.4896 20.1248 11.9958C20.1896 11.8518 20.36 11.6766 20.2688 11.5158C20.1176 11.391 19.9304 11.5062 19.8536 11.6526C19.592 11.9934 19.3952 12.3894 19.0616 12.6678C19.352 12.1086 19.6568 11.511 19.6616 10.8678C19.6616 10.7334 19.6376 10.5366 19.4552 10.563C19.3112 10.587 19.3472 10.803 19.2872 10.911C19.1576 11.3526 19.0952 11.8302 18.8312 12.2142C18.8912 11.8566 18.9944 11.4822 18.9152 11.1222C18.8768 10.959 18.6152 11.0286 18.6512 11.1894C18.3392 12.771 17.276 14.1534 15.8912 14.9526C15.2552 15.3126 14.5472 15.543 13.8224 15.6486C13.6304 15.6894 13.4192 15.6654 13.2344 15.7326C12.7832 16.0758 12.512 16.6542 11.9432 16.8342C11.6864 16.9614 11.3552 16.9878 11.1728 17.223C11.158 17.2544 11.1514 17.2891 11.1536 17.3238ZM12.3944 17.0766C12.308 17.0814 12.224 17.091 12.14 17.1174C12.0272 17.1342 11.9192 17.1726 11.8088 17.1894L11.7632 17.199L11.6888 17.2062C11.6985 17.2464 11.6985 17.2883 11.6888 17.3286C11.681 17.3467 11.6696 17.363 11.6552 17.3766C11.6408 17.3958 11.624 17.4102 11.6024 17.4198C11.5829 17.4293 11.5617 17.435 11.54 17.4366C11.5184 17.4366 11.4968 17.4366 11.4752 17.427C11.4536 17.4198 11.4344 17.4078 11.4152 17.391L11.348 17.403H11.2856L11.2184 17.379C11.1967 17.3705 11.1758 17.36 11.156 17.3478C11.0744 17.3958 10.9832 17.4414 10.9328 17.5254C10.9094 17.5638 10.8962 17.6076 10.8944 17.6526C10.8896 17.7102 10.904 17.7678 10.928 17.8206C10.9376 17.835 10.9448 17.7654 10.9712 17.7558C11.0168 17.7174 11.0744 17.691 11.132 17.6766C11.18 17.6526 11.1728 17.6766 11.1536 17.715C11.1488 17.7366 11.1224 17.811 11.1584 17.7726C11.3244 17.7106 11.4997 17.6773 11.6768 17.6742C11.9312 17.6478 12.1856 17.6406 12.44 17.6382L13.16 17.6526C13.2752 17.6574 13.3904 17.6814 13.5032 17.6622C13.5296 17.655 13.5728 17.655 13.5896 17.6382C13.5368 17.6094 13.4768 17.607 13.4216 17.5998H12.9632C12.836 17.5878 12.704 17.5854 12.584 17.5374C12.5504 17.5254 12.5216 17.4942 12.4904 17.5278C12.4447 17.5441 12.3971 17.5546 12.3488 17.559C12.2648 17.5638 12.1808 17.547 12.104 17.5158C12.1592 17.439 12.2264 17.3718 12.2888 17.2998L12.14 17.2686C12.2288 17.2086 12.308 17.139 12.3944 17.0766Z" fill="#FFEC2D"/>
<path d="M11.5185 17.3593C11.5503 17.3593 11.5761 17.3336 11.5761 17.3017C11.5761 17.2699 11.5503 17.2441 11.5185 17.2441C11.4867 17.2441 11.4609 17.2699 11.4609 17.3017C11.4609 17.3336 11.4867 17.3593 11.5185 17.3593Z" fill="#FFEC2D"/>
<path d="M11.5142 17.3156C11.5275 17.3156 11.5382 17.3048 11.5382 17.2916C11.5382 17.2783 11.5275 17.2676 11.5142 17.2676C11.501 17.2676 11.4902 17.2783 11.4902 17.2916C11.4902 17.3048 11.501 17.3156 11.5142 17.3156Z" fill="#FFEC2D" stroke="#FFEC2D" stroke-width="0.0096"/>
<path d="M2.87859 1.75231C2.87859 1.75231 2.64819 1.55551 2.56899 1.65391C2.44419 1.80991 2.95779 2.58991 2.95779 2.86351C2.95779 3.31471 2.65539 3.43711 2.28579 3.49951C2.03619 3.54271 1.63059 3.48271 1.63059 3.48271C1.70739 3.37951 1.75779 3.34831 1.88499 3.34111C1.74099 3.26911 1.59699 3.10591 1.59699 2.85391C1.59699 2.46751 1.75539 2.30671 1.75539 1.86991C1.75539 1.63231 1.55859 1.32031 1.55859 1.32031C1.90899 1.35631 2.08179 1.68031 1.98339 1.93951C2.0104 1.94489 2.03832 1.94354 2.06469 1.93559C2.09105 1.92763 2.11506 1.91332 2.13459 1.89391C2.15859 1.96591 2.12019 2.04991 2.06499 2.12191C2.10819 2.14591 2.14179 2.13151 2.20899 2.11711C2.20419 2.18911 2.16099 2.27071 2.05059 2.34511C2.36739 2.26351 2.55939 2.48191 2.55939 2.71231C2.55939 2.88751 2.43939 3.01231 2.31939 3.01231C2.28099 3.01231 2.22339 2.99551 2.19219 2.97151C2.16819 3.01951 2.18259 3.08431 2.20419 3.13231C2.11779 3.10831 2.06019 3.05551 2.10099 2.94751C2.03379 2.94271 1.98099 2.91871 1.94499 2.87551C1.98099 2.82751 2.03619 2.80351 2.10099 2.80351C2.05299 2.70271 2.10819 2.64751 2.18739 2.60191C2.18739 2.60191 2.13699 2.80351 2.26419 2.80351C2.32179 2.80351 2.37459 2.78671 2.37459 2.70031C2.37459 2.62591 2.30979 2.52271 2.15859 2.52991C2.00979 2.53711 1.88739 2.63311 1.88739 2.87311C1.88739 3.09391 2.06739 3.20431 2.30259 3.20911C2.51379 3.21871 2.67459 3.10351 2.67459 2.88511C2.67459 2.59231 2.25459 1.92991 2.25459 1.67071C2.25459 1.47631 2.42739 1.36591 2.60019 1.36591C2.82099 1.36591 3.00819 1.58671 3.00819 1.58671L2.87859 1.74991V1.75231Z" fill="#FFEC2D"/>
<path d="M2.92745 7.01162C2.92745 7.49882 2.49065 7.74842 2.14745 7.74842C1.68665 7.74842 1.43945 7.47242 1.43945 7.11002C1.43945 6.90602 1.47785 6.77642 1.57145 6.58202L2.63225 4.38122C2.67068 4.28865 2.68711 4.18842 2.68025 4.08842C2.68025 3.89162 2.48825 3.73082 2.28905 3.72842C2.10665 3.72122 1.90505 3.89642 1.90505 4.09562C1.90505 4.33802 2.03225 4.44602 2.16185 4.44602C2.32025 4.44602 2.38265 4.38122 2.38265 4.26842C2.38265 4.19162 2.34665 4.15802 2.29145 4.15802C2.15465 4.15802 2.19545 4.34042 2.19545 4.34042C2.17739 4.33708 2.16029 4.32979 2.14536 4.31908C2.13044 4.30837 2.11807 4.29449 2.10913 4.27844C2.10019 4.2624 2.0949 4.24457 2.09364 4.22625C2.09238 4.20792 2.09519 4.18954 2.10185 4.17242C2.05048 4.1609 2.00419 4.13313 1.96985 4.09322C2.00585 4.05722 2.04905 4.03082 2.10185 4.02122C2.07065 3.91562 2.11385 3.86522 2.20505 3.84122C2.18864 3.8773 2.18443 3.91774 2.19305 3.95642C2.33705 3.91322 2.56025 3.98042 2.56025 4.23002C2.56025 4.47962 2.38745 4.68842 2.06345 4.63802C2.14025 4.67402 2.17865 4.74842 2.18825 4.83242C2.12825 4.80842 2.06345 4.80842 2.06345 4.80842C2.10185 4.87322 2.15465 4.92842 2.15225 5.06282C2.09225 5.03402 2.03465 4.98362 1.96025 5.01482C2.08025 5.25482 1.93145 5.58122 1.55225 5.65802C1.69145 5.49482 1.75865 5.32202 1.75865 5.14682C1.75865 4.58282 1.60265 4.48922 1.60265 4.09562C1.60512 4.00434 1.62926 3.91495 1.67308 3.83483C1.71689 3.75471 1.77913 3.68616 1.85465 3.63482V3.64202C1.80821 3.63248 1.76431 3.61323 1.72584 3.58551C1.68737 3.5578 1.65521 3.52226 1.63145 3.48122C1.89881 3.40754 2.18144 3.41003 2.44745 3.48842C2.53643 3.50101 2.62145 3.53343 2.69622 3.58328C2.77099 3.63312 2.83361 3.69913 2.87945 3.77642C2.92737 3.88576 2.95211 4.00384 2.95211 4.12322C2.95211 4.2426 2.92737 4.36068 2.87945 4.47002C2.72825 4.78202 2.02265 6.28442 1.80185 6.75482C1.75385 6.85562 1.72745 6.96122 1.72745 7.07642C1.72745 7.36442 1.99145 7.46522 2.14025 7.46522C2.32025 7.46522 2.50505 7.32842 2.50505 7.15802C2.50505 7.05002 2.44505 6.98282 2.36105 6.98282C2.15705 6.98282 2.16905 7.15562 2.20985 7.26602C2.08265 7.20842 2.01065 7.10762 2.02985 7.00202C1.9511 6.9888 1.87963 6.94796 1.82825 6.88682C1.87625 6.82442 1.93865 6.77642 2.02985 6.77402C1.98905 6.60842 2.10185 6.53882 2.20985 6.50042C2.17625 6.62042 2.15225 6.76202 2.36105 6.76202C2.51225 6.76202 2.62985 6.78602 2.69945 6.88682L2.71625 6.23882C2.72585 6.04442 2.45705 6.04682 2.28425 6.10682C2.34905 5.88362 2.48105 5.76122 2.78825 5.79242C2.74119 5.77432 2.70102 5.74186 2.67345 5.69964C2.64588 5.65742 2.6323 5.60759 2.63465 5.55722C2.63465 5.37482 2.78345 5.17322 2.87945 5.11322L2.92745 7.00922V7.01162Z" fill="#FFEC2D"/>
<path d="M2.92745 8.4708C2.92745 7.9836 2.49065 7.734 2.14745 7.734C1.68665 7.734 1.43945 8.01 1.43945 8.3724C1.43945 8.5764 1.47785 8.706 1.57145 8.9004L2.63225 11.1012C2.67068 11.1938 2.68711 11.294 2.68025 11.394C2.68025 11.5908 2.48825 11.7516 2.28905 11.754C2.10665 11.7612 1.90505 11.586 1.90505 11.3868C1.90505 11.1444 2.03225 11.0364 2.16185 11.0364C2.32025 11.0364 2.38265 11.1012 2.38265 11.214C2.38265 11.2908 2.34665 11.3244 2.29145 11.3244C2.15465 11.3244 2.19545 11.142 2.19545 11.142C2.17739 11.1453 2.16029 11.1526 2.14536 11.1633C2.13044 11.1741 2.11807 11.1879 2.10913 11.204C2.10019 11.22 2.0949 11.2378 2.09364 11.2562C2.09238 11.2745 2.09519 11.2929 2.10185 11.31C2.05048 11.3215 2.00419 11.3493 1.96985 11.3892C2.00585 11.4252 2.04905 11.4516 2.10185 11.4612C2.07065 11.5668 2.11385 11.6172 2.20505 11.6412C2.18864 11.6051 2.18443 11.5647 2.19305 11.526C2.33705 11.5692 2.56025 11.502 2.56025 11.2524C2.56025 11.0028 2.38745 10.794 2.06345 10.8444C2.14025 10.8084 2.17865 10.734 2.18825 10.65C2.12825 10.674 2.06345 10.674 2.06345 10.674C2.10185 10.6092 2.15465 10.554 2.15225 10.4196C2.09225 10.4484 2.03465 10.4988 1.96025 10.4676C2.08025 10.2276 1.93145 9.9012 1.55225 9.8244C1.69145 9.9876 1.75865 10.1604 1.75865 10.3356C1.75865 10.8996 1.60265 10.9932 1.60265 11.3868C1.60512 11.4781 1.62926 11.5675 1.67308 11.6476C1.71689 11.7277 1.77913 11.7963 1.85465 11.8476V11.8404C1.80821 11.8499 1.76431 11.8692 1.72584 11.8969C1.68737 11.9246 1.65521 11.9602 1.63145 12.0012C1.89881 12.0749 2.18144 12.0724 2.44745 11.994C2.53643 11.9814 2.62145 11.949 2.69622 11.8991C2.77099 11.8493 2.83361 11.7833 2.87945 11.706C2.92737 11.5967 2.95211 11.4786 2.95211 11.3592C2.95211 11.2398 2.92737 11.1217 2.87945 11.0124C2.72825 10.7004 2.02265 9.198 1.80185 8.7276C1.75385 8.6268 1.72745 8.5212 1.72745 8.406C1.72745 8.118 1.99145 8.0172 2.14025 8.0172C2.32025 8.0172 2.50505 8.154 2.50505 8.3244C2.50505 8.4324 2.44505 8.4996 2.36105 8.4996C2.15705 8.4996 2.16905 8.3268 2.20985 8.2164C2.08265 8.274 2.01065 8.3748 2.02985 8.4804C1.9511 8.49362 1.87963 8.53446 1.82825 8.5956C1.87625 8.658 1.93865 8.706 2.02985 8.7084C1.98905 8.874 2.10185 8.9436 2.20985 8.982C2.17625 8.862 2.15225 8.7204 2.36105 8.7204C2.51225 8.7204 2.62985 8.6964 2.69945 8.5956L2.71625 9.2436C2.72585 9.438 2.45705 9.4356 2.28425 9.3756C2.34905 9.5988 2.48105 9.7212 2.78825 9.69C2.74119 9.7081 2.70102 9.74056 2.67345 9.78278C2.64588 9.825 2.6323 9.87483 2.63465 9.9252C2.63465 10.1076 2.78345 10.3092 2.87945 10.3692L2.92745 8.4732V8.4708Z" fill="#FFEC2D"/>
<path d="M2.88117 1.75231C2.88117 1.75231 3.11157 1.55551 3.19077 1.65391C3.31557 1.80991 2.80197 2.58991 2.80197 2.86351C2.80197 3.31471 3.10437 3.43711 3.47397 3.49951C3.72357 3.54271 4.12917 3.48271 4.12917 3.48271C4.05237 3.37951 4.00197 3.34831 3.87477 3.34111C4.01877 3.26911 4.16277 3.10591 4.16277 2.85391C4.16277 2.46751 4.00437 2.30671 4.00437 1.86991C4.00437 1.63231 4.20117 1.32031 4.20117 1.32031C3.85077 1.35631 3.67797 1.68031 3.77637 1.93951C3.74936 1.94489 3.72145 1.94354 3.69508 1.93559C3.66871 1.92763 3.64471 1.91332 3.62517 1.89391C3.60117 1.96591 3.63957 2.04991 3.69477 2.12191C3.65157 2.14591 3.61797 2.13151 3.55077 2.11711C3.55557 2.18911 3.59877 2.27071 3.70917 2.34511C3.39237 2.26351 3.20037 2.48191 3.20037 2.71231C3.20037 2.88751 3.32037 3.01231 3.44037 3.01231C3.47877 3.01231 3.53637 2.99551 3.56757 2.97151C3.59157 3.01951 3.57717 3.08431 3.55557 3.13231C3.64197 3.10831 3.69957 3.05551 3.65877 2.94751C3.72597 2.94271 3.77877 2.91871 3.81477 2.87551C3.77877 2.82751 3.72357 2.80351 3.65877 2.80351C3.70677 2.70271 3.65157 2.64751 3.57237 2.60191C3.57237 2.60191 3.62277 2.80351 3.49557 2.80351C3.43797 2.80351 3.38517 2.78671 3.38517 2.70031C3.38517 2.62591 3.44997 2.52271 3.60117 2.52991C3.74997 2.53711 3.87237 2.63311 3.87237 2.87311C3.87237 3.09391 3.69237 3.20431 3.45717 3.20911C3.24597 3.21871 3.08517 3.10351 3.08517 2.88511C3.08517 2.59231 3.50517 1.92991 3.50517 1.67071C3.50517 1.47631 3.33237 1.36591 3.15957 1.36591C2.93877 1.36591 2.75157 1.58671 2.75157 1.58671L2.88117 1.74991V1.75231Z" fill="#FFEC2D"/>
<path d="M2.83231 7.01162C2.83231 7.49882 3.26911 7.74842 3.61231 7.74842C4.07311 7.74842 4.32031 7.47242 4.32031 7.11002C4.32031 6.90602 4.28191 6.77642 4.18831 6.58202L3.12751 4.38122C3.08908 4.28865 3.07265 4.18842 3.07951 4.08842C3.07951 3.89162 3.27151 3.73082 3.47071 3.72842C3.65311 3.72122 3.85471 3.89642 3.85471 4.09562C3.85471 4.33802 3.72751 4.44602 3.59791 4.44602C3.43951 4.44602 3.37711 4.38122 3.37711 4.26842C3.37711 4.19162 3.41311 4.15802 3.46831 4.15802C3.60511 4.15802 3.56431 4.34042 3.56431 4.34042C3.58238 4.33708 3.59948 4.32979 3.6144 4.31908C3.62932 4.30837 3.6417 4.29449 3.65064 4.27844C3.65958 4.2624 3.66487 4.24457 3.66612 4.22625C3.66738 4.20792 3.66458 4.18954 3.65791 4.17242C3.70928 4.1609 3.75557 4.13313 3.78991 4.09322C3.75391 4.05722 3.71071 4.03082 3.65791 4.02122C3.68911 3.91562 3.64591 3.86522 3.55471 3.84122C3.57112 3.8773 3.57533 3.91774 3.56671 3.95642C3.42271 3.91322 3.19951 3.98042 3.19951 4.23002C3.19951 4.47962 3.37231 4.68842 3.69631 4.63802C3.61951 4.67402 3.58111 4.74842 3.57151 4.83242C3.63151 4.80842 3.69631 4.80842 3.69631 4.80842C3.65791 4.87322 3.60511 4.92842 3.60751 5.06282C3.66751 5.03402 3.72511 4.98362 3.79951 5.01482C3.67951 5.25482 3.82831 5.58122 4.20751 5.65802C4.06831 5.49482 4.00111 5.32202 4.00111 5.14682C4.00111 4.58282 4.15711 4.48922 4.15711 4.09562C4.15464 4.00434 4.1305 3.91495 4.08669 3.83483C4.04287 3.75471 3.98064 3.68616 3.90511 3.63482V3.64202C3.95156 3.63248 3.99545 3.61323 4.03392 3.58551C4.07239 3.5578 4.10456 3.52226 4.12831 3.48122C3.86096 3.40754 3.57833 3.41003 3.31231 3.48842C3.22333 3.50101 3.13832 3.53343 3.06355 3.58328C2.98878 3.63312 2.92616 3.69913 2.88031 3.77642C2.8324 3.88576 2.80766 4.00384 2.80766 4.12322C2.80766 4.2426 2.8324 4.36068 2.88031 4.47002C3.03151 4.78202 3.73711 6.28442 3.95791 6.75482C4.00591 6.85562 4.03231 6.96122 4.03231 7.07642C4.03231 7.36442 3.76831 7.46522 3.61951 7.46522C3.43951 7.46522 3.25471 7.32842 3.25471 7.15802C3.25471 7.05002 3.31471 6.98282 3.39871 6.98282C3.60271 6.98282 3.59071 7.15562 3.54991 7.26602C3.67711 7.20842 3.74911 7.10762 3.72991 7.00202C3.80867 6.9888 3.88014 6.94796 3.93151 6.88682C3.88351 6.82442 3.82111 6.77642 3.72991 6.77402C3.77071 6.60842 3.65791 6.53882 3.54991 6.50042C3.58351 6.62042 3.60751 6.76202 3.39871 6.76202C3.24751 6.76202 3.12991 6.78602 3.06031 6.88682L3.04351 6.23882C3.03391 6.04442 3.30271 6.04682 3.47551 6.10682C3.41071 5.88362 3.27871 5.76122 2.97151 5.79242C3.01858 5.77432 3.05875 5.74186 3.08632 5.69964C3.11389 5.65742 3.12746 5.60759 3.12511 5.55722C3.12511 5.37482 2.97631 5.17322 2.88031 5.11322L2.83231 7.00922V7.01162Z" fill="#FFEC2D"/>
<path d="M2.83231 8.4708C2.83231 7.9836 3.26911 7.734 3.61231 7.734C4.07311 7.734 4.32031 8.01 4.32031 8.3724C4.32031 8.5764 4.28191 8.706 4.18831 8.9004L3.12751 11.1012C3.08908 11.1938 3.07265 11.294 3.07951 11.394C3.07951 11.5908 3.27151 11.7516 3.47071 11.754C3.65311 11.7612 3.85471 11.586 3.85471 11.3868C3.85471 11.1444 3.72751 11.0364 3.59791 11.0364C3.43951 11.0364 3.37711 11.1012 3.37711 11.214C3.37711 11.2908 3.41311 11.3244 3.46831 11.3244C3.60511 11.3244 3.56431 11.142 3.56431 11.142C3.58238 11.1453 3.59948 11.1526 3.6144 11.1633C3.62932 11.1741 3.6417 11.1879 3.65064 11.204C3.65958 11.22 3.66487 11.2378 3.66612 11.2562C3.66738 11.2745 3.66458 11.2929 3.65791 11.31C3.70928 11.3215 3.75557 11.3493 3.78991 11.3892C3.75391 11.4252 3.71071 11.4516 3.65791 11.4612C3.68911 11.5668 3.64591 11.6172 3.55471 11.6412C3.57112 11.6051 3.57533 11.5647 3.56671 11.526C3.42271 11.5692 3.19951 11.502 3.19951 11.2524C3.19951 11.0028 3.37231 10.794 3.69631 10.8444C3.61951 10.8084 3.58111 10.734 3.57151 10.65C3.63151 10.674 3.69631 10.674 3.69631 10.674C3.65791 10.6092 3.60511 10.554 3.60751 10.4196C3.66751 10.4484 3.72511 10.4988 3.79951 10.4676C3.67951 10.2276 3.82831 9.9012 4.20751 9.8244C4.06831 9.9876 4.00111 10.1604 4.00111 10.3356C4.00111 10.8996 4.15711 10.9932 4.15711 11.3868C4.15464 11.4781 4.1305 11.5675 4.08669 11.6476C4.04287 11.7277 3.98064 11.7963 3.90511 11.8476V11.8404C3.95156 11.8499 3.99545 11.8692 4.03392 11.8969C4.07239 11.9246 4.10456 11.9602 4.12831 12.0012C3.86096 12.0749 3.57833 12.0724 3.31231 11.994C3.22333 11.9814 3.13832 11.949 3.06355 11.8991C2.98878 11.8493 2.92616 11.7833 2.88031 11.706C2.8324 11.5967 2.80766 11.4786 2.80766 11.3592C2.80766 11.2398 2.8324 11.1217 2.88031 11.0124C3.03151 10.7004 3.73711 9.198 3.95791 8.7276C4.00591 8.6268 4.03231 8.5212 4.03231 8.406C4.03231 8.118 3.76831 8.0172 3.61951 8.0172C3.43951 8.0172 3.25471 8.154 3.25471 8.3244C3.25471 8.4324 3.31471 8.4996 3.39871 8.4996C3.60271 8.4996 3.59071 8.3268 3.54991 8.2164C3.67711 8.274 3.74911 8.3748 3.72991 8.4804C3.80867 8.49362 3.88014 8.53446 3.93151 8.5956C3.88351 8.658 3.82111 8.706 3.72991 8.7084C3.77071 8.874 3.65791 8.9436 3.54991 8.982C3.58351 8.862 3.60751 8.7204 3.39871 8.7204C3.24751 8.7204 3.12991 8.6964 3.06031 8.5956L3.04351 9.2436C3.03391 9.438 3.30271 9.4356 3.47551 9.3756C3.41071 9.5988 3.27871 9.7212 2.97151 9.69C3.01858 9.7081 3.05875 9.74056 3.08632 9.78278C3.11389 9.825 3.12746 9.87483 3.12511 9.9252C3.12511 10.1076 2.97631 10.3092 2.88031 10.3692L2.83231 8.4732V8.4708Z" fill="#FFEC2D"/>
<path d="M2.87859 22.2477C2.87859 22.2477 2.64819 22.4445 2.56899 22.3461C2.44419 22.1901 2.95779 21.4101 2.95779 21.1365C2.95779 20.6853 2.65539 20.5629 2.28579 20.5005C2.03619 20.4573 1.63059 20.5173 1.63059 20.5173C1.70739 20.6205 1.75779 20.6517 1.88499 20.6589C1.74099 20.7309 1.59699 20.8941 1.59699 21.1461C1.59699 21.5325 1.75539 21.6933 1.75539 22.1301C1.75539 22.3677 1.55859 22.6797 1.55859 22.6797C1.90899 22.6437 2.08179 22.3197 1.98339 22.0605C2.0104 22.0551 2.03832 22.0565 2.06469 22.0644C2.09105 22.0724 2.11506 22.0867 2.13459 22.1061C2.15859 22.0341 2.12019 21.9501 2.06499 21.8781C2.10819 21.8541 2.14179 21.8685 2.20899 21.8829C2.20419 21.8109 2.16099 21.7293 2.05059 21.6549C2.36739 21.7365 2.55939 21.5181 2.55939 21.2877C2.55939 21.1125 2.43939 20.9877 2.31939 20.9877C2.28099 20.9877 2.22339 21.0045 2.19219 21.0285C2.16819 20.9805 2.18259 20.9157 2.20419 20.8677C2.11779 20.8917 2.06019 20.9445 2.10099 21.0525C2.03379 21.0573 1.98099 21.0813 1.94499 21.1245C1.98099 21.1725 2.03619 21.1965 2.10099 21.1965C2.05299 21.2973 2.10819 21.3525 2.18739 21.3981C2.18739 21.3981 2.13699 21.1965 2.26419 21.1965C2.32179 21.1965 2.37459 21.2133 2.37459 21.2997C2.37459 21.3741 2.30979 21.4773 2.15859 21.4701C2.00979 21.4629 1.88739 21.3669 1.88739 21.1269C1.88739 20.9061 2.06739 20.7957 2.30259 20.7909C2.51379 20.7813 2.67459 20.8965 2.67459 21.1149C2.67459 21.4077 2.25459 22.0701 2.25459 22.3293C2.25459 22.5237 2.42739 22.6341 2.60019 22.6341C2.82099 22.6341 3.00819 22.4133 3.00819 22.4133L2.87859 22.2501V22.2477Z" fill="#FFEC2D"/>
<path d="M2.92745 16.9884C2.92745 16.5012 2.49065 16.2516 2.14745 16.2516C1.68665 16.2516 1.43945 16.5276 1.43945 16.89C1.43945 17.094 1.47785 17.2236 1.57145 17.418L2.63225 19.6188C2.67068 19.7114 2.68711 19.8116 2.68025 19.9116C2.68025 20.1084 2.48825 20.2692 2.28905 20.2716C2.10665 20.2788 1.90505 20.1036 1.90505 19.9044C1.90505 19.662 2.03225 19.554 2.16185 19.554C2.32025 19.554 2.38265 19.6188 2.38265 19.7316C2.38265 19.8084 2.34665 19.842 2.29145 19.842C2.15465 19.842 2.19545 19.6596 2.19545 19.6596C2.17739 19.6629 2.16029 19.6702 2.14536 19.6809C2.13044 19.6916 2.11807 19.7055 2.10913 19.7216C2.10019 19.7376 2.0949 19.7554 2.09364 19.7738C2.09238 19.7921 2.09519 19.8105 2.10185 19.8276C2.05048 19.8391 2.00419 19.8669 1.96985 19.9068C2.00585 19.9428 2.04905 19.9692 2.10185 19.9788C2.07065 20.0844 2.11385 20.1348 2.20505 20.1588C2.18864 20.1227 2.18443 20.0823 2.19305 20.0436C2.33705 20.0868 2.56025 20.0196 2.56025 19.77C2.56025 19.5204 2.38745 19.3116 2.06345 19.362C2.14025 19.326 2.17865 19.2516 2.18825 19.1676C2.12825 19.1916 2.06345 19.1916 2.06345 19.1916C2.10185 19.1268 2.15465 19.0716 2.15225 18.9372C2.09225 18.966 2.03465 19.0164 1.96025 18.9852C2.08025 18.7452 1.93145 18.4188 1.55225 18.342C1.69145 18.5052 1.75865 18.678 1.75865 18.8532C1.75865 19.4172 1.60265 19.5108 1.60265 19.9044C1.60512 19.9957 1.62926 20.0851 1.67308 20.1652C1.71689 20.2453 1.77913 20.3138 1.85465 20.3652V20.358C1.80821 20.3675 1.76431 20.3868 1.72584 20.4145C1.68737 20.4422 1.65521 20.4777 1.63145 20.5188C1.89881 20.5925 2.18144 20.59 2.44745 20.5116C2.53643 20.499 2.62145 20.4666 2.69622 20.4167C2.77099 20.3669 2.83361 20.3009 2.87945 20.2236C2.92737 20.1142 2.95211 19.9962 2.95211 19.8768C2.95211 19.7574 2.92737 19.6393 2.87945 19.53C2.72825 19.218 2.02265 17.7156 1.80185 17.2452C1.75385 17.1444 1.72745 17.0388 1.72745 16.9236C1.72745 16.6356 1.99145 16.5348 2.14025 16.5348C2.32025 16.5348 2.50505 16.6716 2.50505 16.842C2.50505 16.95 2.44505 17.0172 2.36105 17.0172C2.15705 17.0172 2.16905 16.8444 2.20985 16.734C2.08265 16.7916 2.01065 16.8924 2.02985 16.998C1.9511 17.0112 1.87963 17.052 1.82825 17.1132C1.87625 17.1756 1.93865 17.2236 2.02985 17.226C1.98905 17.3916 2.10185 17.4612 2.20985 17.4996C2.17625 17.3796 2.15225 17.238 2.36105 17.238C2.51225 17.238 2.62985 17.214 2.69945 17.1132L2.71625 17.7612C2.72585 17.9556 2.45705 17.9532 2.28425 17.8932C2.34905 18.1164 2.48105 18.2388 2.78825 18.2076C2.74119 18.2257 2.70102 18.2581 2.67345 18.3004C2.64588 18.3426 2.6323 18.3924 2.63465 18.4428C2.63465 18.6252 2.78345 18.8268 2.87945 18.8868L2.92745 16.9908V16.9884Z" fill="#FFEC2D"/>
<path d="M2.92745 15.5292C2.92745 16.0164 2.49065 16.266 2.14745 16.266C1.68665 16.266 1.43945 15.99 1.43945 15.6276C1.43945 15.4236 1.47785 15.294 1.57145 15.0996L2.63225 12.8988C2.67068 12.8062 2.68711 12.706 2.68025 12.606C2.68025 12.4092 2.48825 12.2484 2.28905 12.246C2.10665 12.2388 1.90505 12.414 1.90505 12.6132C1.90505 12.8556 2.03225 12.9636 2.16185 12.9636C2.32025 12.9636 2.38265 12.8988 2.38265 12.786C2.38265 12.7092 2.34665 12.6756 2.29145 12.6756C2.15465 12.6756 2.19545 12.858 2.19545 12.858C2.17739 12.8547 2.16029 12.8474 2.14536 12.8367C2.13044 12.8259 2.11807 12.8121 2.10913 12.796C2.10019 12.78 2.0949 12.7622 2.09364 12.7438C2.09238 12.7255 2.09519 12.7071 2.10185 12.69C2.05048 12.6785 2.00419 12.6507 1.96985 12.6108C2.00585 12.5748 2.04905 12.5484 2.10185 12.5388C2.07065 12.4332 2.11385 12.3828 2.20505 12.3588C2.18864 12.3949 2.18443 12.4353 2.19305 12.474C2.33705 12.4308 2.56025 12.498 2.56025 12.7476C2.56025 12.9972 2.38745 13.206 2.06345 13.1556C2.14025 13.1916 2.17865 13.266 2.18825 13.35C2.12825 13.326 2.06345 13.326 2.06345 13.326C2.10185 13.3908 2.15465 13.446 2.15225 13.5804C2.09225 13.5516 2.03465 13.5012 1.96025 13.5324C2.08025 13.7724 1.93145 14.0988 1.55225 14.1756C1.69145 14.0124 1.75865 13.8396 1.75865 13.6644C1.75865 13.1004 1.60265 13.0068 1.60265 12.6132C1.60512 12.5219 1.62926 12.4325 1.67308 12.3524C1.71689 12.2723 1.77913 12.2037 1.85465 12.1524V12.1596C1.80821 12.1501 1.76431 12.1308 1.72584 12.1031C1.68737 12.0754 1.65521 12.0398 1.63145 11.9988C1.89881 11.9251 2.18144 11.9276 2.44745 12.006C2.53643 12.0186 2.62145 12.051 2.69622 12.1009C2.77099 12.1507 2.83361 12.2167 2.87945 12.294C2.92737 12.4033 2.95211 12.5214 2.95211 12.6408C2.95211 12.7602 2.92737 12.8783 2.87945 12.9876C2.72825 13.2996 2.02265 14.802 1.80185 15.2724C1.75385 15.3732 1.72745 15.4788 1.72745 15.594C1.72745 15.882 1.99145 15.9828 2.14025 15.9828C2.32025 15.9828 2.50505 15.846 2.50505 15.6756C2.50505 15.5676 2.44505 15.5004 2.36105 15.5004C2.15705 15.5004 2.16905 15.6732 2.20985 15.7836C2.08265 15.726 2.01065 15.6252 2.02985 15.5196C1.9511 15.5064 1.87963 15.4655 1.82825 15.4044C1.87625 15.342 1.93865 15.294 2.02985 15.2916C1.98905 15.126 2.10185 15.0564 2.20985 15.018C2.17625 15.138 2.15225 15.2796 2.36105 15.2796C2.51225 15.2796 2.62985 15.3036 2.69945 15.4044L2.71625 14.7564C2.72585 14.562 2.45705 14.5644 2.28425 14.6244C2.34905 14.4012 2.48105 14.2788 2.78825 14.31C2.74119 14.2919 2.70102 14.2594 2.67345 14.2172C2.64588 14.175 2.6323 14.1252 2.63465 14.0748C2.63465 13.8924 2.78345 13.6908 2.87945 13.6308L2.92745 15.5268V15.5292Z" fill="#FFEC2D"/>
<path d="M2.88117 22.2477C2.88117 22.2477 3.11157 22.4445 3.19077 22.3461C3.31557 22.1901 2.80197 21.4101 2.80197 21.1365C2.80197 20.6853 3.10437 20.5629 3.47397 20.5005C3.72357 20.4573 4.12917 20.5173 4.12917 20.5173C4.05237 20.6205 4.00197 20.6517 3.87477 20.6589C4.01877 20.7309 4.16277 20.8941 4.16277 21.1461C4.16277 21.5325 4.00437 21.6933 4.00437 22.1301C4.00437 22.3677 4.20117 22.6797 4.20117 22.6797C3.85077 22.6437 3.67797 22.3197 3.77637 22.0605C3.74936 22.0551 3.72145 22.0565 3.69508 22.0644C3.66871 22.0724 3.64471 22.0867 3.62517 22.1061C3.60117 22.0341 3.63957 21.9501 3.69477 21.8781C3.65157 21.8541 3.61797 21.8685 3.55077 21.8829C3.55557 21.8109 3.59877 21.7293 3.70917 21.6549C3.39237 21.7365 3.20037 21.5181 3.20037 21.2877C3.20037 21.1125 3.32037 20.9877 3.44037 20.9877C3.47877 20.9877 3.53637 21.0045 3.56757 21.0285C3.59157 20.9805 3.57717 20.9157 3.55557 20.8677C3.64197 20.8917 3.69957 20.9445 3.65877 21.0525C3.72597 21.0573 3.77877 21.0813 3.81477 21.1245C3.77877 21.1725 3.72357 21.1965 3.65877 21.1965C3.70677 21.2973 3.65157 21.3525 3.57237 21.3981C3.57237 21.3981 3.62277 21.1965 3.49557 21.1965C3.43797 21.1965 3.38517 21.2133 3.38517 21.2997C3.38517 21.3741 3.44997 21.4773 3.60117 21.4701C3.74997 21.4629 3.87237 21.3669 3.87237 21.1269C3.87237 20.9061 3.69237 20.7957 3.45717 20.7909C3.24597 20.7813 3.08517 20.8965 3.08517 21.1149C3.08517 21.4077 3.50517 22.0701 3.50517 22.3293C3.50517 22.5237 3.33237 22.6341 3.15957 22.6341C2.93877 22.6341 2.75157 22.4133 2.75157 22.4133L2.88117 22.2501V22.2477Z" fill="#FFEC2D"/>
<path d="M2.83231 16.9884C2.83231 16.5012 3.26911 16.2516 3.61231 16.2516C4.07311 16.2516 4.32031 16.5276 4.32031 16.89C4.32031 17.094 4.28191 17.2236 4.18831 17.418L3.12751 19.6188C3.08908 19.7114 3.07265 19.8116 3.07951 19.9116C3.07951 20.1084 3.27151 20.2692 3.47071 20.2716C3.65311 20.2788 3.85471 20.1036 3.85471 19.9044C3.85471 19.662 3.72751 19.554 3.59791 19.554C3.43951 19.554 3.37711 19.6188 3.37711 19.7316C3.37711 19.8084 3.41311 19.842 3.46831 19.842C3.60511 19.842 3.56431 19.6596 3.56431 19.6596C3.58238 19.6629 3.59948 19.6702 3.6144 19.6809C3.62932 19.6916 3.6417 19.7055 3.65064 19.7216C3.65958 19.7376 3.66487 19.7554 3.66612 19.7738C3.66738 19.7921 3.66458 19.8105 3.65791 19.8276C3.70928 19.8391 3.75557 19.8669 3.78991 19.9068C3.75391 19.9428 3.71071 19.9692 3.65791 19.9788C3.68911 20.0844 3.64591 20.1348 3.55471 20.1588C3.57112 20.1227 3.57533 20.0823 3.56671 20.0436C3.42271 20.0868 3.19951 20.0196 3.19951 19.77C3.19951 19.5204 3.37231 19.3116 3.69631 19.362C3.61951 19.326 3.58111 19.2516 3.57151 19.1676C3.63151 19.1916 3.69631 19.1916 3.69631 19.1916C3.65791 19.1268 3.60511 19.0716 3.60751 18.9372C3.66751 18.966 3.72511 19.0164 3.79951 18.9852C3.67951 18.7452 3.82831 18.4188 4.20751 18.342C4.06831 18.5052 4.00111 18.678 4.00111 18.8532C4.00111 19.4172 4.15711 19.5108 4.15711 19.9044C4.15464 19.9957 4.1305 20.0851 4.08669 20.1652C4.04287 20.2453 3.98064 20.3138 3.90511 20.3652V20.358C3.95156 20.3675 3.99545 20.3868 4.03392 20.4145C4.07239 20.4422 4.10456 20.4777 4.12831 20.5188C3.86096 20.5925 3.57833 20.59 3.31231 20.5116C3.22333 20.499 3.13832 20.4666 3.06355 20.4167C2.98878 20.3669 2.92616 20.3009 2.88031 20.2236C2.8324 20.1142 2.80766 19.9962 2.80766 19.8768C2.80766 19.7574 2.8324 19.6393 2.88031 19.53C3.03151 19.218 3.73711 17.7156 3.95791 17.2452C4.00591 17.1444 4.03231 17.0388 4.03231 16.9236C4.03231 16.6356 3.76831 16.5348 3.61951 16.5348C3.43951 16.5348 3.25471 16.6716 3.25471 16.842C3.25471 16.95 3.31471 17.0172 3.39871 17.0172C3.60271 17.0172 3.59071 16.8444 3.54991 16.734C3.67711 16.7916 3.74911 16.8924 3.72991 16.998C3.80867 17.0112 3.88014 17.052 3.93151 17.1132C3.88351 17.1756 3.82111 17.2236 3.72991 17.226C3.77071 17.3916 3.65791 17.4612 3.54991 17.4996C3.58351 17.3796 3.60751 17.238 3.39871 17.238C3.24751 17.238 3.12991 17.214 3.06031 17.1132L3.04351 17.7612C3.03391 17.9556 3.30271 17.9532 3.47551 17.8932C3.41071 18.1164 3.27871 18.2388 2.97151 18.2076C3.01858 18.2257 3.05875 18.2581 3.08632 18.3004C3.11389 18.3426 3.12746 18.3924 3.12511 18.4428C3.12511 18.6252 2.97631 18.8268 2.88031 18.8868L2.83231 16.9908V16.9884Z" fill="#FFEC2D"/>
<path d="M2.83231 15.5292C2.83231 16.0164 3.26911 16.266 3.61231 16.266C4.07311 16.266 4.32031 15.99 4.32031 15.6276C4.32031 15.4236 4.28191 15.294 4.18831 15.0996L3.12751 12.8988C3.08908 12.8062 3.07265 12.706 3.07951 12.606C3.07951 12.4092 3.27151 12.2484 3.47071 12.246C3.65311 12.2388 3.85471 12.414 3.85471 12.6132C3.85471 12.8556 3.72751 12.9636 3.59791 12.9636C3.43951 12.9636 3.37711 12.8988 3.37711 12.786C3.37711 12.7092 3.41311 12.6756 3.46831 12.6756C3.60511 12.6756 3.56431 12.858 3.56431 12.858C3.58238 12.8547 3.59948 12.8474 3.6144 12.8367C3.62932 12.8259 3.6417 12.8121 3.65064 12.796C3.65958 12.78 3.66487 12.7622 3.66612 12.7438C3.66738 12.7255 3.66458 12.7071 3.65791 12.69C3.70928 12.6785 3.75557 12.6507 3.78991 12.6108C3.75391 12.5748 3.71071 12.5484 3.65791 12.5388C3.68911 12.4332 3.64591 12.3828 3.55471 12.3588C3.57112 12.3949 3.57533 12.4353 3.56671 12.474C3.42271 12.4308 3.19951 12.498 3.19951 12.7476C3.19951 12.9972 3.37231 13.206 3.69631 13.1556C3.61951 13.1916 3.58111 13.266 3.57151 13.35C3.63151 13.326 3.69631 13.326 3.69631 13.326C3.65791 13.3908 3.60511 13.446 3.60751 13.5804C3.66751 13.5516 3.72511 13.5012 3.79951 13.5324C3.67951 13.7724 3.82831 14.0988 4.20751 14.1756C4.06831 14.0124 4.00111 13.8396 4.00111 13.6644C4.00111 13.1004 4.15711 13.0068 4.15711 12.6132C4.15464 12.5219 4.1305 12.4325 4.08669 12.3524C4.04287 12.2723 3.98064 12.2037 3.90511 12.1524V12.1596C3.95156 12.1501 3.99545 12.1308 4.03392 12.1031C4.07239 12.0754 4.10456 12.0398 4.12831 11.9988C3.86096 11.9251 3.57833 11.9276 3.31231 12.006C3.22333 12.0186 3.13832 12.051 3.06355 12.1009C2.98878 12.1507 2.92616 12.2167 2.88031 12.294C2.8324 12.4033 2.80766 12.5214 2.80766 12.6408C2.80766 12.7602 2.8324 12.8783 2.88031 12.9876C3.03151 13.2996 3.73711 14.802 3.95791 15.2724C4.00591 15.3732 4.03231 15.4788 4.03231 15.594C4.03231 15.882 3.76831 15.9828 3.61951 15.9828C3.43951 15.9828 3.25471 15.846 3.25471 15.6756C3.25471 15.5676 3.31471 15.5004 3.39871 15.5004C3.60271 15.5004 3.59071 15.6732 3.54991 15.7836C3.67711 15.726 3.74911 15.6252 3.72991 15.5196C3.80867 15.5064 3.88014 15.4655 3.93151 15.4044C3.88351 15.342 3.82111 15.294 3.72991 15.2916C3.77071 15.126 3.65791 15.0564 3.54991 15.018C3.58351 15.138 3.60751 15.2796 3.39871 15.2796C3.24751 15.2796 3.12991 15.3036 3.06031 15.4044L3.04351 14.7564C3.03391 14.562 3.30271 14.5644 3.47551 14.6244C3.41071 14.4012 3.27871 14.2788 2.97151 14.31C3.01858 14.2919 3.05875 14.2594 3.08632 14.2172C3.11389 14.175 3.12746 14.1252 3.12511 14.0748C3.12511 13.8924 2.97631 13.6908 2.88031 13.6308L2.83231 15.5268V15.5292Z" fill="#FFEC2D"/>
</g>
<defs>
<clipPath id="clip0_735_13997">
<rect width="24" height="24" fill="white"/>
</clipPath>
</defs>
</svg>
