<svg width="101" height="24" viewBox="0 0 101 24" fill="none" xmlns="http://www.w3.org/2000/svg">
<path d="M4.01988 19.2C3.24654 19.2 2.57988 19.0133 2.01988 18.64C1.47321 18.2533 1.04654 17.74 0.739878 17.1C0.446545 16.4467 0.299878 15.7133 0.299878 14.9C0.299878 14.0333 0.453211 13.2067 0.759878 12.42C1.06654 11.6333 1.48654 10.9333 2.01988 10.32C2.56654 9.70667 3.17988 9.22667 3.85988 8.88C4.55321 8.52 5.27988 8.34 6.03988 8.34C6.75988 8.34 7.37321 8.53333 7.87988 8.92C8.38654 9.29333 8.73321 9.77333 8.91988 10.36L9.31988 8.56H11.9999L10.4399 15.92C10.4265 15.9867 10.4132 16.0533 10.3999 16.12C10.3865 16.1733 10.3799 16.2267 10.3799 16.28C10.3799 16.56 10.5399 16.7067 10.8599 16.72L10.3799 19C10.1399 19.04 9.92655 19.0733 9.73988 19.1C9.56655 19.1267 9.41321 19.14 9.27988 19.14C8.79988 19.14 8.42655 19.04 8.15988 18.84C7.89321 18.64 7.75988 18.34 7.75988 17.94C7.75988 17.8867 7.76654 17.8267 7.77988 17.76C7.79321 17.68 7.80655 17.5933 7.81988 17.5C7.83321 17.3933 7.85321 17.2867 7.87988 17.18C7.37321 17.8333 6.77321 18.3333 6.07988 18.68C5.38654 19.0267 4.69988 19.2 4.01988 19.2ZM5.21988 16.92C5.44655 16.92 5.68655 16.88 5.93988 16.8C6.19321 16.7067 6.43988 16.5867 6.67988 16.44C6.93321 16.28 7.16654 16.0933 7.37988 15.88C7.59321 15.6533 7.77321 15.4133 7.91988 15.16L8.43988 12.66C8.39988 12.2733 8.27988 11.9267 8.07988 11.62C7.87988 11.3133 7.63321 11.0733 7.33988 10.9C7.04655 10.7133 6.73321 10.62 6.39988 10.62C5.97321 10.62 5.55988 10.7333 5.15988 10.96C4.77321 11.1733 4.42654 11.4667 4.11988 11.84C3.81321 12.2 3.56654 12.6133 3.37988 13.08C3.20654 13.5333 3.11988 14 3.11988 14.48C3.11988 14.9333 3.20654 15.3467 3.37988 15.72C3.55321 16.0933 3.79321 16.3867 4.09988 16.6C4.41988 16.8133 4.79321 16.92 5.21988 16.92ZM16.5003 19.2C15.727 19.2 15.0603 19.0133 14.5003 18.64C13.9537 18.2533 13.527 17.74 13.2203 17.1C12.927 16.4467 12.7803 15.7133 12.7803 14.9C12.7803 14.0333 12.9337 13.2067 13.2403 12.42C13.547 11.6333 13.967 10.9333 14.5003 10.32C15.047 9.70667 15.6603 9.22667 16.3403 8.88C17.0337 8.52 17.7603 8.34 18.5203 8.34C19.2403 8.34 19.8537 8.53333 20.3603 8.92C20.867 9.29333 21.2137 9.77333 21.4003 10.36L22.6803 4.4H25.3603L22.9203 15.92C22.907 15.9867 22.8937 16.0533 22.8803 16.12C22.867 16.1733 22.8603 16.2267 22.8603 16.28C22.8603 16.56 23.0203 16.7067 23.3403 16.72L22.8603 19C22.6203 19.04 22.407 19.0733 22.2203 19.1C22.047 19.1267 21.8937 19.14 21.7603 19.14C21.2937 19.14 20.9203 19.0467 20.6403 18.86C20.3737 18.66 20.2403 18.3733 20.2403 18C20.2403 17.9333 20.247 17.86 20.2603 17.78C20.2737 17.7 20.287 17.6133 20.3003 17.52C20.3137 17.4133 20.3337 17.3 20.3603 17.18C19.8537 17.8333 19.2537 18.3333 18.5603 18.68C17.867 19.0267 17.1803 19.2 16.5003 19.2ZM17.7003 16.92C17.927 16.92 18.167 16.88 18.4203 16.8C18.6737 16.7067 18.9203 16.5867 19.1603 16.44C19.4137 16.28 19.647 16.0933 19.8603 15.88C20.0737 15.6533 20.2537 15.4133 20.4003 15.16L20.9203 12.66C20.8803 12.2733 20.7603 11.9267 20.5603 11.62C20.3603 11.3133 20.1137 11.0733 19.8203 10.9C19.527 10.7133 19.2137 10.62 18.8803 10.62C18.4537 10.62 18.0403 10.7333 17.6403 10.96C17.2537 11.1733 16.907 11.4667 16.6003 11.84C16.2937 12.2 16.047 12.6133 15.8603 13.08C15.687 13.5333 15.6003 14 15.6003 14.48C15.6003 14.9333 15.687 15.3467 15.8603 15.72C16.0337 16.0933 16.2737 16.3867 16.5803 16.6C16.9003 16.8133 17.2737 16.92 17.7003 16.92ZM28.6808 19.2C27.8275 19.2 27.0208 19.06 26.2608 18.78C25.5141 18.5 24.9141 18.1 24.4608 17.58L25.8008 15.9C26.3075 16.34 26.8275 16.68 27.3608 16.92C27.8941 17.1467 28.4341 17.26 28.9808 17.26C29.3541 17.26 29.6741 17.2067 29.9408 17.1C30.2075 16.98 30.4141 16.8267 30.5608 16.64C30.7075 16.44 30.7808 16.2133 30.7808 15.96C30.7808 15.6267 30.6341 15.38 30.3408 15.22C30.0475 15.06 29.5875 14.8867 28.9608 14.7C28.2675 14.4733 27.6941 14.26 27.2408 14.06C26.8008 13.8467 26.4741 13.6 26.2608 13.32C26.0475 13.0267 25.9408 12.66 25.9408 12.22C25.9408 11.4733 26.1475 10.8067 26.5608 10.22C26.9875 9.63333 27.5541 9.17333 28.2608 8.84C28.9808 8.49333 29.7808 8.32 30.6608 8.32C31.4208 8.32 32.1008 8.44 32.7008 8.68C33.3008 8.90667 33.8341 9.26667 34.3008 9.76L32.8808 11.38C32.4541 10.98 32.0408 10.6933 31.6408 10.52C31.2541 10.3333 30.8275 10.24 30.3608 10.24C30.0141 10.24 29.7008 10.2933 29.4208 10.4C29.1541 10.4933 28.9408 10.64 28.7808 10.84C28.6208 11.04 28.5408 11.28 28.5408 11.56C28.5408 11.8667 28.6608 12.0933 28.9008 12.24C29.1541 12.3733 29.5875 12.5333 30.2008 12.72C30.9475 12.9333 31.5608 13.16 32.0408 13.4C32.5208 13.6267 32.8808 13.9 33.1208 14.22C33.3608 14.54 33.4808 14.9467 33.4808 15.44C33.4808 16.1733 33.2808 16.82 32.8808 17.38C32.4808 17.94 31.9208 18.3867 31.2008 18.72C30.4808 19.04 29.6408 19.2 28.6808 19.2ZM50.8899 8.52H53.2299L52.8499 10.32C53.3432 9.70667 53.9165 9.22667 54.5699 8.88C55.2365 8.52 55.9432 8.34 56.6899 8.34C57.4499 8.34 58.0965 8.53333 58.6299 8.92C59.1765 9.29333 59.5965 9.80667 59.8899 10.46C60.1832 11.1133 60.3299 11.84 60.3299 12.64C60.3299 13.4933 60.1765 14.32 59.8699 15.12C59.5632 15.9067 59.1432 16.6067 58.6099 17.22C58.0899 17.8333 57.4899 18.32 56.8099 18.68C56.1299 19.0267 55.4165 19.2 54.6699 19.2C53.9099 19.2 53.2765 19.02 52.7699 18.66C52.2632 18.2867 51.9165 17.7867 51.7299 17.16L50.4299 23.26H47.7499L50.8899 8.52ZM54.2699 16.92C54.6965 16.92 55.1032 16.8133 55.4899 16.6C55.8899 16.3733 56.2365 16.08 56.5299 15.72C56.8365 15.3467 57.0765 14.9333 57.2499 14.48C57.4365 14.0133 57.5299 13.5467 57.5299 13.08C57.5299 12.6133 57.4432 12.1933 57.2699 11.82C57.1099 11.4467 56.8699 11.1533 56.5499 10.94C56.2432 10.7267 55.8765 10.62 55.4499 10.62C55.2099 10.62 54.9632 10.6667 54.7099 10.76C54.4565 10.84 54.2032 10.96 53.9499 11.12C53.7099 11.28 53.4832 11.4667 53.2699 11.68C53.0699 11.8933 52.8965 12.1267 52.7499 12.38L52.2099 14.84C52.2899 15.2267 52.4232 15.58 52.6099 15.9C52.7965 16.22 53.0299 16.4733 53.3099 16.66C53.6032 16.8333 53.9232 16.92 54.2699 16.92ZM63.136 8.52H65.596L65.116 10.76C65.6226 10.04 66.1893 9.47333 66.816 9.06C67.456 8.63333 68.0826 8.42 68.696 8.42C68.8293 8.42 68.9293 8.42667 68.996 8.44C69.076 8.44 69.136 8.44667 69.176 8.46L68.676 10.84C67.916 10.84 67.196 11 66.516 11.32C65.8493 11.6267 65.3226 12.0733 64.936 12.66L63.596 19H60.916L63.136 8.52ZM73.1174 19.2C72.104 19.2 71.2707 19 70.6174 18.6C69.9774 18.2 69.504 17.6667 69.1974 17C68.8907 16.32 68.7374 15.5733 68.7374 14.76C68.7374 13.9067 68.8907 13.0933 69.1974 12.32C69.5174 11.5467 69.964 10.86 70.5374 10.26C71.1107 9.66 71.784 9.19333 72.5574 8.86C73.344 8.51333 74.204 8.34 75.1374 8.34C76.1507 8.34 76.9774 8.54 77.6174 8.94C78.2707 9.34 78.7507 9.87333 79.0574 10.54C79.364 11.2067 79.5174 11.9533 79.5174 12.78C79.5174 13.6333 79.3574 14.4467 79.0374 15.22C78.7307 15.9933 78.2907 16.68 77.7174 17.28C77.144 17.88 76.464 18.3533 75.6774 18.7C74.904 19.0333 74.0507 19.2 73.1174 19.2ZM73.5174 16.92C73.9307 16.92 74.3307 16.8267 74.7174 16.64C75.104 16.4533 75.444 16.1867 75.7374 15.84C76.044 15.4933 76.284 15.0867 76.4574 14.62C76.644 14.1533 76.7374 13.6467 76.7374 13.1C76.7374 12.6067 76.6574 12.1733 76.4974 11.8C76.3507 11.4267 76.124 11.14 75.8174 10.94C75.524 10.7267 75.164 10.62 74.7374 10.62C74.324 10.62 73.924 10.7133 73.5374 10.9C73.164 11.0867 72.824 11.3533 72.5174 11.7C72.2107 12.0467 71.964 12.46 71.7774 12.94C71.604 13.4067 71.5174 13.9133 71.5174 14.46C71.5174 14.94 71.5907 15.3667 71.7374 15.74C71.8974 16.1133 72.124 16.4067 72.4174 16.62C72.724 16.82 73.0907 16.92 73.5174 16.92ZM83.2264 13.78L80.8264 8.52H83.5664L84.9064 11.8L85.0064 12.16L85.2464 11.8L88.0264 8.52H90.7664L86.1264 13.78L88.5864 19H85.8264L84.4264 15.74L84.3264 15.4L84.0864 15.74L81.2864 19H78.5264L83.2264 13.78ZM89.0613 21.52C89.5946 21.48 90.028 21.4133 90.3613 21.32C90.708 21.2267 91.008 21.0733 91.2613 20.86C91.5146 20.66 91.7746 20.3733 92.0413 20L92.6213 19.22L90.8813 8.52H93.6213L94.5213 16.68L95.2013 15.56C95.6146 14.88 95.9746 14.2467 96.2813 13.66C96.6013 13.06 96.8746 12.4867 97.1013 11.94C97.3413 11.38 97.548 10.82 97.7213 10.26C97.8946 9.7 98.0546 9.12 98.2013 8.52H100.801C100.628 9.16 100.435 9.76667 100.221 10.34C100.008 10.9 99.7546 11.4867 99.4613 12.1C99.168 12.7133 98.7946 13.4067 98.3413 14.18C97.9013 14.9533 97.348 15.8733 96.6813 16.94L95.0813 19.52C94.6146 20.2667 94.1613 20.8933 93.7213 21.4C93.2946 21.92 92.8546 22.34 92.4013 22.66C91.9613 22.98 91.4946 23.2067 91.0013 23.34C90.508 23.4867 89.968 23.5667 89.3813 23.58L89.0613 21.52Z" fill="black"/>
<path d="M38.2783 15.778C37.4973 14.9969 37.4973 13.7306 38.2783 12.9496L39.9499 11.278C40.731 10.4969 41.9973 10.4969 42.7783 11.278L44.4499 12.9496C45.231 13.7306 45.231 14.9969 44.4499 15.778L42.7783 17.4496C41.9973 18.2306 40.731 18.2306 39.9499 17.4496L38.2783 15.778Z" fill="#DA5583"/>
</svg>
