<svg width="20" height="20" viewBox="0 0 20 20" fill="none" xmlns="http://www.w3.org/2000/svg">
<circle cx="10" cy="10" r="10" fill="#F59124"/>
<path d="M13.2904 7.07885C12.5058 6.35962 11.5577 6 10.3808 6C9.17115 6 8.125 6.39231 7.275 7.20962C6.425 8.02692 6 9.04039 6 10.25C6 11.4269 6.39231 12.4077 7.20962 13.2577C8.02693 14.1077 9.10578 14.5 10.5115 14.5C11.3289 14.5 12.1462 14.3365 12.9635 13.9769C13.225 13.8788 13.3558 13.5519 13.2577 13.2904C13.1596 13.0288 12.8327 12.8981 12.5712 12.9962C11.8846 13.2904 11.1981 13.4538 10.5442 13.4538C9.49808 13.4538 8.68077 13.1269 8.09231 12.4731C7.50384 11.8192 7.20962 11.0673 7.20962 10.2173C7.20962 9.26923 7.53654 8.48462 8.125 7.86346C8.74615 7.24231 9.49808 6.91539 10.4135 6.91539C11.2308 6.91539 11.95 7.17692 12.5385 7.7C13.1269 8.22308 13.3885 8.87692 13.3885 9.66154C13.3885 10.1846 13.2577 10.6423 12.9962 11.0019C12.7346 11.3615 12.4731 11.525 12.1788 11.525C12.0154 11.525 11.95 11.4596 11.95 11.2635C11.95 11.1327 11.95 10.9692 11.9827 10.8058L12.3096 8.15769H11.1981L11.1327 8.41923C10.8385 8.19038 10.5442 8.05962 10.2173 8.05962C9.69423 8.05962 9.23654 8.28846 8.84423 8.71346C8.45193 9.13846 8.28846 9.69423 8.28846 10.3481C8.28846 11.0019 8.45193 11.525 8.81154 11.95C9.13846 12.3423 9.56347 12.5385 10.0212 12.5385C10.4462 12.5385 10.8058 12.375 11.1 12.0154C11.3288 12.3423 11.6558 12.5385 12.1135 12.5385C12.7673 12.5385 13.3231 12.2442 13.8135 11.6885C14.3038 11.1327 14.5327 10.4462 14.5327 9.62885C14.4346 8.64808 14.0423 7.76539 13.2904 7.07885ZM10.7077 11.0673C10.5115 11.3288 10.2827 11.4596 9.98847 11.4596C9.79231 11.4596 9.66154 11.3615 9.53078 11.1654C9.40001 10.9692 9.36731 10.7404 9.36731 10.4462C9.36731 10.0865 9.43269 9.79231 9.59615 9.59615C9.75962 9.36731 9.95578 9.26923 10.1846 9.26923C10.3808 9.26923 10.5769 9.33462 10.7404 9.53077C10.9038 9.69423 10.9692 9.92308 10.9692 10.1846C11.0019 10.5115 10.9038 10.8058 10.7077 11.0673Z" fill="white"/>
</svg>
