<svg width="20" height="20" viewBox="0 0 20 20" fill="none" xmlns="http://www.w3.org/2000/svg">
<circle cx="10" cy="10" r="10" fill="#2F89CE"/>
<path d="M4.67547 10.187L6.97452 11.0443L7.87075 13.9279C7.90972 14.1227 8.14352 14.1617 8.29939 14.0448L9.58529 12.9926C9.70219 12.8757 9.89703 12.8757 10.0529 12.9926L12.3519 14.6682C12.5078 14.7851 12.7416 14.7072 12.7806 14.5124L14.4951 6.32933C14.5341 6.13449 14.3392 5.93966 14.1444 6.0176L4.67547 9.68047C4.44167 9.75841 4.44167 10.1091 4.67547 10.187ZM7.75386 10.6157L12.274 7.84903C12.3519 7.81007 12.4299 7.92697 12.3519 7.96593L8.65009 11.434C8.53319 11.5509 8.41629 11.7067 8.41629 11.9016L8.29939 12.8368C8.29939 12.9537 8.10455 12.9926 8.06559 12.8368L7.59798 11.1222C7.48108 10.9274 7.55902 10.6936 7.75386 10.6157Z" fill="white"/>
</svg>
