<svg width="20" height="20" viewBox="0 0 20 20" fill="none" xmlns="http://www.w3.org/2000/svg">
<circle cx="10" cy="10" r="10" fill="#F40000"/>
<path d="M14.3566 9.45656C14.3566 9.26262 14.3242 9.03636 14.3242 8.77778C14.2919 8.51919 14.2596 8.26061 14.2273 8.03434C14.1626 7.77576 14.0657 7.58182 13.8717 7.4202C13.7101 7.25859 13.4838 7.16161 13.2576 7.12929C12.5141 7.03232 11.4152 7 9.92829 7C8.44142 7 7.3101 7.03232 6.59899 7.12929C6.37273 7.16161 6.14646 7.25859 5.98485 7.4202C5.82323 7.58182 5.69394 7.77576 5.62929 8.03434C5.56464 8.26061 5.53233 8.48687 5.53233 8.77778C5.5 9.03636 5.5 9.26262 5.5 9.45656C5.5 9.6505 5.5 9.87677 5.5 10.2C5.5 10.5232 5.5 10.7818 5.5 10.9434C5.5 11.1374 5.53233 11.3636 5.53233 11.6222C5.56465 11.8808 5.59697 12.1394 5.62929 12.3657C5.69394 12.6242 5.79091 12.8182 5.98485 12.9798C6.14646 13.1414 6.37273 13.2384 6.59899 13.2707C7.34242 13.3677 8.44142 13.4 9.92829 13.4C11.4152 13.4 12.5465 13.3677 13.2576 13.2707C13.4838 13.2384 13.7101 13.1414 13.8717 12.9798C14.0333 12.8182 14.1626 12.6242 14.2273 12.3657C14.2919 12.1394 14.3242 11.9131 14.3242 11.6222C14.3566 11.3636 14.3566 11.1374 14.3566 10.9434C14.3566 10.7495 14.3566 10.5232 14.3566 10.2C14.3566 9.87677 14.3566 9.61818 14.3566 9.45656ZM11.6414 10.4586L9.08788 12.0424C9.05556 12.0747 8.99091 12.1071 8.92627 12.1071C8.86162 12.1071 8.8293 12.1071 8.76465 12.0747C8.66768 12.0101 8.60303 11.9131 8.60303 11.7838V8.58384C8.60303 8.45454 8.66768 8.35758 8.76465 8.29293C8.86162 8.22828 8.99091 8.22828 9.08788 8.29293L11.6414 9.87677C11.7384 9.94141 11.803 10.0384 11.803 10.1354C11.803 10.2323 11.7384 10.3939 11.6414 10.4586Z" fill="white"/>
</svg>
